<svg xmlns="http://www.w3.org/2000/svg" xmlns:xlink="http://www.w3.org/1999/xlink" width="276.586" height="350.718" viewBox="0 0 276.586 350.718">
  <defs>
    <linearGradient id="linear-gradient" x1="0.937" y1="0.826" x2="0.365" y2="0.399" gradientUnits="objectBoundingBox">
      <stop offset="0" stop-color="#7ed6df"/>
      <stop offset="1" stop-color="#7ed6df" stop-opacity="0"/>
    </linearGradient>
    <linearGradient id="linear-gradient-2" x1="0.364" y1="0.202" x2="0.616" y2="0.755" xlink:href="#linear-gradient"/>
    <linearGradient id="linear-gradient-3" x1="0.307" y1="0.659" x2="0.703" y2="0.167" gradientUnits="objectBoundingBox">
      <stop offset="0"/>
      <stop offset="1" stop-opacity="0"/>
    </linearGradient>
    <linearGradient id="linear-gradient-4" x1="0.469" y1="0.5" x2="0.102" y2="0.5" gradientUnits="objectBoundingBox">
      <stop offset="0" stop-color="#7ed6df"/>
      <stop offset="1" stop-color="#22a6b3"/>
    </linearGradient>
    <linearGradient id="linear-gradient-5" x1="0.916" y1="-0.199" x2="0.131" y2="1.29" gradientUnits="objectBoundingBox">
      <stop offset="0" stop-color="#7ed6df"/>
      <stop offset="0.452" stop-color="#54c0cb"/>
      <stop offset="1" stop-color="#22a6b3"/>
    </linearGradient>
  </defs>
  <g id="Group_628" data-name="Group 628" transform="translate(-517.267 -103.079)">
    <g id="Group_619" data-name="Group 619" transform="translate(517.267 103.079)">
      <g id="Group_616" data-name="Group 616" opacity="0.4">
        <path id="Path_4124" data-name="Path 4124" d="M676.169,134.909H552.07a11.073,11.073,0,0,1,17.442-9.062,23.951,23.951,0,0,1,46.923-5.494,16.7,16.7,0,0,1,11.513-4.579c7.114,0,13.2,6.433,15.633,12.69a27.066,27.066,0,0,1,11.827-2.624C664.966,125.841,673.1,128.451,676.169,134.909Z" transform="translate(-491.71 -103.079)" fill="#7ed6df"/>
        <g id="Group_613" data-name="Group 613" transform="translate(200.012 71.382)">
          <g id="Group_612" data-name="Group 612">
            <path id="Path_4125" data-name="Path 4125" d="M708.812,166.187c-.1-.219-2.412-5.314-9.084-4.65-.656-1.719-4.333-9.407-15.774-2.959-.907-2.291-6.082-13.526-17.555-5.64a11.931,11.931,0,0,0-2.2-5.474c-2.114-2.735-5.344-3.741-9.6-2.983-3.85.683-6.427,2.7-7.659,5.982a16.007,16.007,0,0,0-.465,8.242c-2.352.1-12.707.9-13.788,7.648l-.1.638h76.575Z" transform="translate(-632.591 -144.237)" fill="#7ed6df"/>
          </g>
        </g>
        <g id="Group_615" data-name="Group 615" transform="translate(0 118.97)">
          <g id="Group_614" data-name="Group 614">
            <path id="Path_4126" data-name="Path 4126" d="M585.559,193.625a7.722,7.722,0,0,0-8.141-4.65c-.586-1.719-3.88-9.407-14.131-2.959-.813-2.291-5.449-13.526-15.729-5.64a12.8,12.8,0,0,0-1.967-5.474c-1.894-2.735-4.787-3.739-8.6-2.983a8.536,8.536,0,0,0-6.861,5.982,17.787,17.787,0,0,0-.416,8.242c-2.107.1-11.386.9-12.354,7.648l-.092.638h68.609Z" transform="translate(-517.267 -171.675)" fill="#7ed6df"/>
          </g>
        </g>
      </g>
      <g id="Group_617" data-name="Group 617" transform="translate(11.533 52.96)">
        <path id="Path_4127" data-name="Path 4127" d="M539.29,234.326a15.373,15.373,0,1,1,15.372-15.373A15.391,15.391,0,0,1,539.29,234.326Zm0-26.1a10.723,10.723,0,1,0,10.723,10.723A10.736,10.736,0,0,0,539.29,208.23Z" transform="translate(-523.917 -82.236)" fill="#7ed6df"/>
        <path id="Path_4128" data-name="Path 4128" d="M665.285,319.452a29.8,29.8,0,1,1,29.8-29.8A29.834,29.834,0,0,1,665.285,319.452Zm0-54.949a25.15,25.15,0,1,0,25.15,25.15A25.178,25.178,0,0,0,665.285,264.5Z" transform="translate(-441.987 -40.913)" fill="url(#linear-gradient)"/>
        <path id="Path_4129" data-name="Path 4129" d="M606.137,193.214a29.8,29.8,0,1,1,29.8-29.8A29.834,29.834,0,0,1,606.137,193.214Zm0-54.949a25.15,25.15,0,1,0,25.152,25.15A25.178,25.178,0,0,0,606.137,138.265Z" transform="translate(-485.423 -133.615)" fill="url(#linear-gradient-2)"/>
      </g>
      <g id="Group_618" data-name="Group 618" transform="translate(24.175 27.229)">
        <path id="Path_4130" data-name="Path 4130" d="M574.455,307.581s.167-13.455,13.455-13.455c0,0-13.455-.166-13.455-13.455,0,0-.167,13.455-13.455,13.455C561,294.126,574.455,294.293,574.455,307.581Z" transform="translate(-509.327 0.106)" fill="#f9ca24"/>
        <path id="Path_4131" data-name="Path 4131" d="M544.661,162.529s.165-13.453,13.453-13.453c0,0-13.453-.166-13.453-13.455,0,0-.167,13.455-13.455,13.455C531.206,149.076,544.661,149.243,544.661,162.529Z" transform="translate(-531.206 -106.411)" fill="#f9ca24"/>
        <path id="Path_4132" data-name="Path 4132" d="M553.182,311.989s.1-7.9,7.9-7.9c0,0-7.9-.1-7.9-7.9,0,0-.1,7.9-7.9,7.9C545.282,304.087,553.182,304.186,553.182,311.989Z" transform="translate(-520.869 11.5)" fill="#f9ca24"/>
        <path id="Path_4133" data-name="Path 4133" d="M666.191,244.468s.1-7.9,7.9-7.9c0,0-7.9-.1-7.9-7.9,0,0-.1,7.9-7.9,7.9C658.289,236.568,666.191,236.665,666.191,244.468Z" transform="translate(-437.883 -38.084)" fill="#f9ca24"/>
        <path id="Path_4134" data-name="Path 4134" d="M643.454,134.581s.1-7.9,7.9-7.9c0,0-7.9-.1-7.9-7.9,0,0-.1,7.9-7.9,7.9C635.554,126.679,643.454,126.778,643.454,134.581Z" transform="translate(-454.578 -118.779)" fill="#f9ca24"/>
        <path id="Path_4135" data-name="Path 4135" d="M557.739,174.576s.1-7.9,7.9-7.9c0,0-7.9-.1-7.9-7.9,0,0-.1,7.9-7.9,7.9C549.837,166.676,557.739,166.773,557.739,174.576Z" transform="translate(-517.524 -89.409)" fill="#f9ca24"/>
      </g>
    </g>
    <g id="Group_627" data-name="Group 627" transform="translate(527.337 189.11)">
      <path id="Path_4136" data-name="Path 4136" d="M591.252,257.569V245.41H580.345v13.411l9.8.958Z" transform="translate(-481.015 -84.589)" fill="#ffabab"/>
      <g id="Group_620" data-name="Group 620" transform="translate(76.471 170.425)">
        <path id="Path_4137" data-name="Path 4137" d="M603.987,271.053H567.165v-1.875a8.392,8.392,0,0,1,.108-1.322,8.282,8.282,0,0,1,6-6.708c6.048-1.686,14.4-4.952,14.289-10.08l.036-.012a4.82,4.82,0,0,1,5.541,3.054l8.5-1.58a59.551,59.551,0,0,1,2.346,15.326C604.023,269.19,604.011,270.286,603.987,271.053Z" transform="translate(-567.165 -250.947)" fill="#30336b"/>
        <path id="Path_4138" data-name="Path 4138" d="M603.987,263.893H567.165v-1.875a8.391,8.391,0,0,1,.108-1.322h36.714C604.023,262.031,604.011,263.127,603.987,263.893Z" transform="translate(-567.165 -243.788)" fill="#5663af"/>
      </g>
      <path id="Path_4139" data-name="Path 4139" d="M664.238,212.865v6.391a12.013,12.013,0,0,1-12.014,12.014H595.806v46.206H576.86V227.383a14.517,14.517,0,0,1,14.516-14.518Z" transform="translate(-483.575 -108.489)" fill="#e87658"/>
      <g id="Group_622" data-name="Group 622" transform="translate(131.386 5.983)">
        <path id="Path_4140" data-name="Path 4140" d="M624.172,183.746a4.355,4.355,0,0,0-.128,2.177l1.585,7.973-11.655,2.338-1.505-9.157c-.943.224-1.92.432-2.929.671-.961.225-1.92.434-2.85.609a3.071,3.071,0,0,1-2.546-.64c-.016,0-.016,0-.031-.016-.193-.225-.385-.449-.593-.689-.016-.016-.031-.033-.031-.049-5.491-6.58-5.108-9.7-3.939-12.2.768-1.632,1.729-2.914,1.729-4.787-.928-6.788,3.906-11.766,10.07-13.335a17.155,17.155,0,0,1,4.82-.5,14.263,14.263,0,0,1,4.723,1.008h.016a14.545,14.545,0,0,1,3.41,1.906,14.7,14.7,0,0,1,.994,22.925A3.992,3.992,0,0,0,624.172,183.746Z" transform="translate(-598.828 -156.133)" fill="#ffabab"/>
        <path id="Path_4141" data-name="Path 4141" d="M625.019,170.313a14.7,14.7,0,0,1-5.011,11.67,3.992,3.992,0,0,0-1.138,1.762l-5.475-5.012s2.081-2.4-.576-5.81c-1.837-2.357-3.521-.578-4.386.748a.461.461,0,0,1-.841-.2,14.083,14.083,0,0,1,1.289-8.84l-2.834-7.988a17.155,17.155,0,0,1,4.82-.5,14.263,14.263,0,0,1,4.723,1.008h.016l3.41,1.906A14.8,14.8,0,0,1,625.019,170.313Z" transform="translate(-593.527 -156.133)"/>
        <path id="Path_4142" data-name="Path 4142" d="M601.7,165.4c0,.411-.134.744-.3.744s-.3-.333-.3-.744.135-.742.3-.742S601.7,164.987,601.7,165.4Z" transform="translate(-597.163 -149.875)"/>
        <path id="Path_4143" data-name="Path 4143" d="M600.7,163.925s-.25-1.7,2.851-.251" transform="translate(-597.457 -151.024)" fill="none" stroke="#000" stroke-linecap="round" stroke-miterlimit="10" stroke-width="0.25"/>
        <path id="Path_4144" data-name="Path 4144" d="M604.794,169.516l7.651-4.3,1.578,8.162-9.228,5.9" transform="translate(-594.447 -149.466)" fill="none" stroke="#fff" stroke-linecap="round" stroke-miterlimit="10" stroke-width="0.25"/>
        <g id="Group_621" data-name="Group 621" transform="translate(16.25 13.897)">
          <path id="Path_4145" data-name="Path 4145" d="M608.2,167.551s3.016-5.755,5.867-2.3.2,11.663-5,8.706" transform="translate(-608.198 -164.145)" fill="#ffabab" stroke="#000" stroke-linecap="round" stroke-miterlimit="10" stroke-width="0.25"/>
          <path id="Path_4146" data-name="Path 4146" d="M609.21,170.115s-.252-5.4,3.151-4.353" transform="translate(-607.458 -163.057)" fill="none" stroke="#000" stroke-linecap="round" stroke-miterlimit="10" stroke-width="0.25"/>
          <path id="Path_4147" data-name="Path 4147" d="M610.669,169.061s.576-2.215-1.046-2.884" transform="translate(-607.152 -162.653)" fill="none" stroke="#000" stroke-linecap="round" stroke-miterlimit="10" stroke-width="0.25"/>
        </g>
        <path id="Path_4148" data-name="Path 4148" d="M609.539,179.858c-.961.225-1.922.434-2.849.609a3.072,3.072,0,0,1-2.546-.64c-.016,0-.016,0-.031-.016-.193-.225-.385-.449-.593-.689-.016-.016-.031-.033-.031-.049-5.493-6.58-5.108-9.7-3.939-12.2,1.68.208,7.043.848,9.078.8C611.877,167.612,612.692,172.846,609.539,179.858Z" transform="translate(-598.828 -148.244)" fill="#f9ca24"/>
      </g>
      <path id="Path_4149" data-name="Path 4149" d="M627.4,180.4c-5.543-.656-12.052,1.221-17.486,5.487h-.017c-.694.493-1.368,1-2.079,1.551-1.112-2.371-3.682-8.387-3.682-8.387l18.8-5.6S625.009,176.682,627.4,180.4Z" transform="translate(-463.547 -137.428)" fill="#e87658"/>
      <g id="Group_623" data-name="Group 623" transform="translate(3.198 172.607)">
        <circle id="Ellipse_116" data-name="Ellipse 116" cx="26.734" cy="26.734" r="26.734" fill="#30336b"/>
        <circle id="Ellipse_117" data-name="Ellipse 117" cx="15.276" cy="15.276" r="15.276" transform="translate(11.457 11.457)" fill="#5663af"/>
        <path id="Path_4150" data-name="Path 4150" d="M547.579,269.776a5.092,5.092,0,1,1-5.092-5.092A5.092,5.092,0,0,1,547.579,269.776Z" transform="translate(-515.754 -243.043)" fill="#fff"/>
      </g>
      <path id="Path_4151" data-name="Path 4151" d="M561.362,271.576H523.073s11.244-30.145,48.468-30.145Z" transform="translate(-523.073 -87.511)" fill="#22a6b3"/>
      <path id="Path_4152" data-name="Path 4152" d="M624.5,179.618a4.239,4.239,0,0,1-3.229,1.5H610.909a5.342,5.342,0,0,1-5.342-5.342V160.662h16.917Z" transform="translate(-462.494 -146.824)" fill="#ba7f17"/>
      <path id="Path_4153" data-name="Path 4153" d="M596.9,161.276s-3.9,10.477,4.053,22.481l16.688-6.61-2.888-17.321Z" transform="translate(-469.563 -147.438)" opacity="0.2" fill="url(#linear-gradient-3)"/>
      <path id="Path_4154" data-name="Path 4154" d="M631.722,159.9a18.957,18.957,0,0,0-29.773,0,19.713,19.713,0,0,0-3.574,6.618h13.493v15.115a5.342,5.342,0,0,0,5.342,5.342H627.57a4.242,4.242,0,0,0,3.229-1.5c2.933-3.446,5.5-7.827,5.5-12.593A20.459,20.459,0,0,0,631.722,159.9Z" transform="translate(-467.776 -152.683)" fill="#e87658"/>
      <path id="Path_4155" data-name="Path 4155" d="M614.063,156.846v6.618H596.3a.933.933,0,0,1-.364-1.786l6.873-3.028.109-1.8Z" transform="translate(-469.972 -149.626)" fill="#3c427f"/>
      <path id="Path_4156" data-name="Path 4156" d="M610.918,156.846v5.5c-4.832-3.7-11.251-3.7-11.251-3.7l.109-1.8Z" transform="translate(-466.827 -149.626)" fill="#30336b"/>
      <path id="Path_4157" data-name="Path 4157" d="M605.767,158.328a.683.683,0,1,1-.683-.683A.682.682,0,0,1,605.767,158.328Z" transform="translate(-463.351 -149.039)" fill="#fff"/>
      <path id="Path_4158" data-name="Path 4158" d="M563.463,198.577v18.847a9.7,9.7,0,0,1-7.3-9.416v-.016A9.7,9.7,0,0,1,563.463,198.577Z" transform="translate(-498.772 -118.981)" fill="#f9ca24"/>
      <path id="Path_4159" data-name="Path 4159" d="M584.9,205.379c-2.149,3.5-4.6,7.723-7.194,12.506H562.815a4.321,4.321,0,0,1-.617-.029,8.422,8.422,0,0,1-1.825-.295V198.714a8.318,8.318,0,0,1,1.825-.295,4.6,4.6,0,0,1,.617-.028h18.141A4.6,4.6,0,0,1,584.9,205.379Z" transform="translate(-495.682 -119.118)" fill="#7ed6df"/>
      <path id="Path_4160" data-name="Path 4160" d="M574.859,209.63c-.839,1.531-1.677,3.136-2.534,4.776h-8.077c.966-1.587,1.951-3.172,2.954-4.776Z" transform="translate(-492.836 -110.864)" fill="#22a6b3"/>
      <path id="Path_4161" data-name="Path 4161" d="M597.356,217.325c-8.422,12.29-28.5,45.854-24.923,82.047.2,2.078.493,4.157.857,6.235H548.643a7.339,7.339,0,0,1-6.984-9.636c5.012-15.156,16.927-46.671,39.453-83.587h13.637A3.163,3.163,0,0,1,597.356,217.325Z" transform="translate(-509.7 -108.842)" fill="#7ed6df"/>
      <rect id="Rectangle_898" data-name="Rectangle 898" width="1.824" height="22.672" transform="translate(64.691 77.684)" fill="#22a6b3"/>
      <path id="Path_4162" data-name="Path 4162" d="M665.505,254.876c-17.066-4.3-34.588-16.209-34.588-16.209l1.606-2.971c-3.574-1.951-1.459-6.254-1.606-14.459-.127-8.2-1-15.387-1-15.387l-.017.017c-16.3,9.426-52.856,17.194-52.856,17.194l-2.133-7.64A222.445,222.445,0,0,0,609.4,199.467c8.843-5.177,14.77-10.885,19.874-14.914.711-.548,1.386-1.058,2.08-1.55h.017q.877-.684,1.805-1.313h.019a23.9,23.9,0,0,1,15.661-4.175c1.386,2.151,2.881,4.468,4.138,6.4,1.077,1.641,1.97,3.009,2.516,3.774a.06.06,0,0,1,.019.036C663.025,197.115,669.06,216.424,665.505,254.876Z" transform="translate(-485.008 -134.542)" fill="#f9ca24"/>
      <path id="Path_4163" data-name="Path 4163" d="M566.641,213.721a.738.738,0,0,1-.149-.016.687.687,0,0,1-.52-.817l4.91-22.128a.684.684,0,0,1,1.335.3l-4.91,22.129A.684.684,0,0,1,566.641,213.721Z" transform="translate(-491.582 -125.113)" fill="#22a6b3"/>
      <path id="Path_4164" data-name="Path 4164" d="M572.255,211.012h0a2.4,2.4,0,0,1-2.612,2.765c-2.146-.229-4.761-1.509-5.364-6.2-1.065-8.262,9.953-9.247,14.053-6.363l6.421-2.05,1.4,6.23-6.382,1.681s-3.455,6.145-6.474,3.94S572.255,211.012,572.255,211.012Z" transform="translate(-492.867 -118.552)" fill="#e87658"/>
      <circle id="Ellipse_118" data-name="Ellipse 118" cx="4.271" cy="4.271" r="4.271" transform="translate(73.641 84.749)" fill="#22a6b3"/>
      <path id="Path_4165" data-name="Path 4165" d="M629.915,204.027l-.017.017c-16.3,9.426-52.856,17.194-52.856,17.194l-2.133-7.64A222.445,222.445,0,0,0,609.4,197.645c8.843-5.177,14.77-10.885,19.874-14.914.711-.548,1.386-1.058,2.08-1.55h.017q.877-.684,1.805-1.313h.019C642.842,186.615,641.054,197.936,629.915,204.027Z" transform="translate(-485.008 -132.72)" fill="#f6e58d"/>
      <path id="Rectangle_899" data-name="Rectangle 899" d="M3.185,0H5.807a0,0,0,0,1,0,0V12.459a0,0,0,0,1,0,0H3.185A3.185,3.185,0,0,1,0,9.274V3.185A3.185,3.185,0,0,1,3.185,0Z" transform="translate(77.064 57.894)" fill="#22a6b3"/>
      <g id="Group_624" data-name="Group 624" transform="translate(160.971 172.607)">
        <circle id="Ellipse_119" data-name="Ellipse 119" cx="26.734" cy="26.734" r="26.734" fill="#30336b"/>
        <circle id="Ellipse_120" data-name="Ellipse 120" cx="15.276" cy="15.276" r="15.276" transform="translate(11.457 11.457)" fill="#5663af"/>
        <circle id="Ellipse_121" data-name="Ellipse 121" cx="5.092" cy="5.092" r="5.092" transform="translate(21.642 21.642)" fill="#fff"/>
      </g>
      <path id="Path_4166" data-name="Path 4166" d="M736.635,292.576H560.1c-.364-2.078-.657-4.157-.857-6.235h59.644s7.78-56.212,26.347-56.212h42.323C731.317,230.129,736.635,292.576,736.635,292.576Z" transform="translate(-496.511 -95.811)" fill="url(#linear-gradient-4)"/>
      <path id="Path_4167" data-name="Path 4167" d="M687.333,281.752H608.6a39.448,39.448,0,0,1,78.729,0Z" transform="translate(-460.264 -84.987)" fill="#22a6b3"/>
      <path id="Path_4168" data-name="Path 4168" d="M623.608,237.8H608.279a3.588,3.588,0,0,1-3.588-3.588h0a9.286,9.286,0,0,1,9.287-9.287h14.529c15.84,0,9.116-5.243,20.17-5.243h8.944a4.274,4.274,0,0,1,4.273,4.273h0A13.845,13.845,0,0,1,648.05,237.8Z" transform="translate(-463.137 -103.483)" fill="url(#linear-gradient-5)"/>
      <path id="Rectangle_900" data-name="Rectangle 900" d="M14.583,0H58.933A5.667,5.667,0,0,1,64.6,5.667V74.146a0,0,0,0,1,0,0H7.17A7.17,7.17,0,0,1,0,66.975V14.583A14.583,14.583,0,0,1,14.583,0Z" transform="translate(181.765 36.319)" fill="#e87658"/>
      <path id="Path_4169" data-name="Path 4169" d="M644.06,242.622h-26.6a1.1,1.1,0,0,1,0-2.206h24.394v-9.4a13.191,13.191,0,0,1,13.177-13.176H700.2a1.1,1.1,0,1,1,0,2.206H655.03a10.982,10.982,0,0,0-10.97,10.97Z" transform="translate(-454.571 -104.837)" fill="#22a6b3"/>
      <g id="Group_626" data-name="Group 626" transform="translate(188.964 48.291)">
        <circle id="Ellipse_122" data-name="Ellipse 122" cx="17.749" cy="17.749" r="17.749" transform="translate(0 25.101) rotate(-45)" fill="#fff"/>
        <g id="Group_625" data-name="Group 625" transform="translate(12.355 15.92)">
          <path id="Path_4170" data-name="Path 4170" d="M664.643,193.02,649.6,208.068l-10.444-10.444,3.314-3.314,7.13,7.13,11.734-11.734Z" transform="translate(-639.151 -189.706)" fill="#f0932b"/>
        </g>
      </g>
    </g>
  </g>
</svg>
