<svg xmlns="http://www.w3.org/2000/svg" xmlns:xlink="http://www.w3.org/1999/xlink" width="282.636" height="321.56" viewBox="0 0 282.636 321.56">
  <defs>
    <linearGradient id="linear-gradient" x1="0.125" y1="0.261" x2="0.795" y2="0.688" gradientUnits="objectBoundingBox">
      <stop offset="0" stop-color="#7ed6df"/>
      <stop offset="1" stop-color="#7ed6df" stop-opacity="0"/>
    </linearGradient>
    <linearGradient id="linear-gradient-2" x1="0.65" y1="1.252" x2="0.476" y2="0.379" xlink:href="#linear-gradient"/>
    <linearGradient id="linear-gradient-3" x1="0.536" y1="0.343" x2="0.318" y2="1.302" gradientUnits="objectBoundingBox">
      <stop offset="0" stop-color="#7ed6df"/>
      <stop offset="1" stop-color="#22a6b3"/>
    </linearGradient>
    <linearGradient id="linear-gradient-4" x1="0.31" y1="0.229" x2="0.723" y2="0.818" xlink:href="#linear-gradient-3"/>
    <linearGradient id="linear-gradient-5" x1="-0.028" y1="1.038" x2="0.606" y2="0.392" gradientUnits="objectBoundingBox">
      <stop offset="0"/>
      <stop offset="1" stop-opacity="0"/>
    </linearGradient>
  </defs>
  <g id="Group_611" data-name="Group 611" transform="translate(-293.589 -103.134)">
    <path id="Path_4099" data-name="Path 4099" d="M351.655,239.01a3.978,3.978,0,0,0-.035.642v-.642Z" transform="translate(42.675 99.922)" fill="#30336b"/>
    <g id="Group_610" data-name="Group 610" transform="translate(293.589 103.134)">
      <g id="Group_597" data-name="Group 597" transform="translate(5.746 58.429)">
        <g id="Group_595" data-name="Group 595" transform="translate(24.259 17.328)">
          <path id="Path_4100" data-name="Path 4100" d="M438.912,264.7s.167-13.463,13.463-13.463c0,0-13.463-.167-13.463-13.463,0,0-.167,13.463-13.463,13.463C425.449,251.24,438.912,251.407,438.912,264.7Z" transform="translate(-226.625 -79.875)" fill="#f9ca24"/>
          <path id="Path_4101" data-name="Path 4101" d="M343.918,299.839s.167-13.463,13.463-13.463c0,0-13.463-.165-13.463-13.461,0,0-.165,13.461-13.461,13.461C330.457,286.375,343.918,286.542,343.918,299.839Z" transform="translate(-296.482 -54.036)" fill="#f9ca24"/>
          <path id="Path_4102" data-name="Path 4102" d="M390.962,173.714s.167-13.463,13.463-13.463c0,0-13.463-.167-13.463-13.463,0,0-.167,13.463-13.463,13.463C377.5,160.251,390.962,160.418,390.962,173.714Z" transform="translate(-261.887 -146.788)" fill="#f9ca24"/>
          <path id="Path_4103" data-name="Path 4103" d="M417.636,283.371s.1-7.9,7.9-7.9c0,0-7.9-.1-7.9-7.906,0,0-.1,7.906-7.906,7.906C409.73,275.466,417.636,275.564,417.636,283.371Z" transform="translate(-238.185 -57.973)" fill="#f9ca24"/>
          <path id="Path_4104" data-name="Path 4104" d="M318.784,284.169s.1-7.9,7.906-7.9c0,0-7.906-.1-7.906-7.906,0,0-.1,7.906-7.9,7.906C310.879,276.264,318.784,276.362,318.784,284.169Z" transform="translate(-310.879 -57.386)" fill="#f9ca24"/>
        </g>
        <g id="Group_596" data-name="Group 596">
          <path id="Path_4105" data-name="Path 4105" d="M454.11,196.52a15.382,15.382,0,1,1,15.383-15.383A15.4,15.4,0,0,1,454.11,196.52Zm0-26.112a10.73,10.73,0,1,0,10.73,10.73A10.743,10.743,0,0,0,454.11,170.408Z" transform="translate(-192.601 -115.51)" fill="#7ed6df"/>
          <path id="Path_4106" data-name="Path 4106" d="M326.718,196.438a29.818,29.818,0,1,1,29.818-29.819A29.852,29.852,0,0,1,326.718,196.438Zm0-54.982a25.165,25.165,0,1,0,25.167,25.163A25.193,25.193,0,0,0,326.718,141.456Z" transform="translate(-296.9 -136.803)" fill="url(#linear-gradient)"/>
          <path id="Path_4107" data-name="Path 4107" d="M395.846,306.288a29.817,29.817,0,1,1,29.818-29.818A29.852,29.852,0,0,1,395.846,306.288Zm0-54.981a25.165,25.165,0,1,0,25.165,25.163A25.194,25.194,0,0,0,395.846,251.308Z" transform="translate(-246.063 -56.019)" fill="url(#linear-gradient-2)"/>
        </g>
      </g>
      <g id="Group_609" data-name="Group 609" transform="translate(0 0)">
        <g id="Group_599" data-name="Group 599" transform="translate(233.603 179.777)">
          <g id="Group_598" data-name="Group 598" transform="translate(0 0)">
            <circle id="Ellipse_111" data-name="Ellipse 111" cx="14.64" cy="14.64" r="14.64" transform="matrix(0.115, -0.993, 0.993, 0.115, 0, 29.087)" fill="#f0932b"/>
            <path id="Path_4108" data-name="Path 4108" d="M454.617,212.415A14.641,14.641,0,1,1,434.054,210,14.641,14.641,0,0,1,454.617,212.415Z" transform="translate(-427.99 -206.64)" fill="#f9ca24"/>
            <path id="Path_4109" data-name="Path 4109" d="M451.966,212.846a12.448,12.448,0,1,1-17.482-2.055A12.445,12.445,0,0,1,451.966,212.846Z" transform="translate(-427.06 -205.711)" fill="#f0932b"/>
            <path id="Path_4110" data-name="Path 4110" d="M443.776,216.238a4.133,4.133,0,0,0-1.958.116,16.03,16.03,0,0,0-1.964.772l-.364.167c-.592.269-1.079.479-1.468.626-.054.019-.106.036-.154.056a2.955,2.955,0,0,1-1.156.193,1.178,1.178,0,0,1-.89-.474,1.514,1.514,0,0,1-.25-1.458,2.521,2.521,0,0,1,.465-.831,5.619,5.619,0,0,1,.923-.887,6.4,6.4,0,0,1,.534-.38,7.2,7.2,0,0,1,1.064-.547,7.564,7.564,0,0,1,1.9-.514l-.573-1.971a6.58,6.58,0,0,0-2.119.567,9.716,9.716,0,0,0-1.539.857l-1.2-1.527-1.515,1.2,1.246,1.577a6.136,6.136,0,0,0-1.008,1.361,4.018,4.018,0,0,0-.524,2.225,3.526,3.526,0,0,0,.769,1.928,3.013,3.013,0,0,0,1.8,1.2,4.025,4.025,0,0,0,1.949-.113,16.751,16.751,0,0,0,1.708-.658c.207-.089.425-.187.649-.292q.677-.31,1.177-.508c.163-.068.312-.125.446-.174a2.869,2.869,0,0,1,1.161-.186,1.206,1.206,0,0,1,.9.481,1.42,1.42,0,0,1,.2,1.425,2.95,2.95,0,0,1-.665,1.036,6.844,6.844,0,0,1-.764.7,7.27,7.27,0,0,1-.741.51,7.429,7.429,0,0,1-1.366.635,6.641,6.641,0,0,1-2.207.41l.515,2.018a6.171,6.171,0,0,0,2.478-.491,9.82,9.82,0,0,0,1.85-.963l1.218,1.543,1.515-1.2-1.227-1.553a6.308,6.308,0,0,0,1.2-1.553,4.029,4.029,0,0,0,.536-2.223,3.473,3.473,0,0,0-.76-1.919A2.944,2.944,0,0,0,443.776,216.238Z" transform="translate(-424.519 -203.584)" fill="#f9ca24"/>
          </g>
        </g>
        <g id="Group_601" data-name="Group 601" transform="translate(26.314 237.244)">
          <g id="Group_600" data-name="Group 600" transform="translate(0 0)">
            <path id="Path_4111" data-name="Path 4111" d="M338.753,261.493a14.64,14.64,0,1,1-9.612-18.338A14.64,14.64,0,0,1,338.753,261.493Z" transform="translate(-307.736 -237.899)" fill="#f0932b"/>
            <circle id="Ellipse_112" data-name="Ellipse 112" cx="14.64" cy="14.64" r="14.64" transform="matrix(0.974, -0.225, 0.225, 0.974, 0, 6.6)" fill="#f9ca24"/>
            <circle id="Ellipse_113" data-name="Ellipse 113" cx="12.448" cy="12.448" r="12.448" transform="translate(2.667 26.944) rotate(-77.201)" fill="#f0932b"/>
            <path id="Path_4112" data-name="Path 4112" d="M325.8,255.767a4.152,4.152,0,0,0-1.2-1.55,16.1,16.1,0,0,0-1.746-1.185c-.111-.068-.226-.137-.344-.207-.555-.337-1-.621-1.345-.859l-.132-.1a2.932,2.932,0,0,1-.812-.845,1.179,1.179,0,0,1-.113-1,1.518,1.518,0,0,1,1.062-1.029,2.532,2.532,0,0,1,.949-.085,5.672,5.672,0,0,1,1.253.26,6.424,6.424,0,0,1,.616.229,7.322,7.322,0,0,1,1.052.567,7.6,7.6,0,0,1,1.5,1.276l1.3-1.586a6.632,6.632,0,0,0-1.664-1.427,9.818,9.818,0,0,0-1.576-.788l.58-1.855-1.843-.576-.6,1.919a6.068,6.068,0,0,0-1.692-.064,4.007,4.007,0,0,0-2.131.824,3.51,3.51,0,0,0-1.157,1.72,3.02,3.02,0,0,0,.023,2.169,4.027,4.027,0,0,0,1.2,1.544,16.23,16.23,0,0,0,1.506,1.038c.191.122.394.246.607.373q.638.383,1.083.684c.148.1.279.186.4.269a2.9,2.9,0,0,1,.809.854,1.215,1.215,0,0,1,.109,1.012,1.434,1.434,0,0,1-1.062.97,2.971,2.971,0,0,1-1.23.036,6.95,6.95,0,0,1-1.007-.24,7.053,7.053,0,0,1-.84-.323,7.5,7.5,0,0,1-1.3-.769,6.665,6.665,0,0,1-1.583-1.591L315.085,257a6.2,6.2,0,0,0,1.8,1.768,10,10,0,0,0,1.839.984l-.587,1.876,1.843.574.588-1.888a6.363,6.363,0,0,0,1.963.116,4.021,4.021,0,0,0,2.138-.814,3.452,3.452,0,0,0,1.154-1.711A2.955,2.955,0,0,0,325.8,255.767Z" transform="translate(-304.095 -236.044)" fill="#f9ca24"/>
          </g>
        </g>
        <g id="Group_604" data-name="Group 604" transform="translate(82.075 116.896)">
          <path id="Path_4113" data-name="Path 4113" d="M440.6,193.954v14.772H348.284a7.394,7.394,0,0,1-7.4-7.372,3.28,3.28,0,0,1,.028-.521,7.384,7.384,0,0,1,7.372-6.879Z" transform="translate(-340.884 -153.242)" fill="#30336b"/>
          <rect id="Rectangle_886" data-name="Rectangle 886" width="97.186" height="25.674" transform="translate(8.507 45.702)" fill="url(#linear-gradient-3)"/>
          <g id="Group_603" data-name="Group 603" transform="translate(58.676)">
            <path id="Path_4114" data-name="Path 4114" d="M399.693,170.626l47.781,7.821c4.944.81,8.349,5.112,7.613,9.605L440.457,277.41c-.736,4.495-5.335,7.486-10.279,6.676L382.4,276.263c-4.932-.807-8.339-5.109-7.6-9.6L389.426,177.3C390.162,172.809,394.761,169.817,399.693,170.626Z" transform="translate(-374.695 -170.494)" fill="#f9ca24"/>
            <rect id="Rectangle_887" data-name="Rectangle 887" width="107.045" height="8.452" transform="translate(7.923 105.806) rotate(-80.701)" fill="#f0932b"/>
            <g id="Group_602" data-name="Group 602" transform="translate(20.475 7.674)">
              <rect id="Rectangle_888" data-name="Rectangle 888" width="11.224" height="2.751" transform="translate(0 94.435) rotate(-80.702)" fill="#fff"/>
              <rect id="Rectangle_889" data-name="Rectangle 889" width="11.224" height="2.751" transform="translate(2.73 77.764) rotate(-80.702)" fill="#fff"/>
              <rect id="Rectangle_890" data-name="Rectangle 890" width="11.224" height="2.751" transform="translate(5.459 61.092) rotate(-80.702)" fill="#fff"/>
              <rect id="Rectangle_891" data-name="Rectangle 891" width="11.224" height="2.751" transform="translate(8.189 44.42) rotate(-80.702)" fill="#fff"/>
              <rect id="Rectangle_892" data-name="Rectangle 892" width="11.224" height="2.751" transform="translate(10.918 27.748) rotate(-80.702)" fill="#fff"/>
              <rect id="Rectangle_893" data-name="Rectangle 893" width="11.224" height="2.751" transform="matrix(0.162, -0.987, 0.987, 0.162, 13.648, 11.076)" fill="#fff"/>
            </g>
            <rect id="Rectangle_894" data-name="Rectangle 894" width="20.846" height="14.146" transform="translate(53.071 33.284) rotate(-80.702)" fill="#f6e58d"/>
          </g>
          <rect id="Rectangle_895" data-name="Rectangle 895" width="99.472" height="25.674" transform="translate(13.43 50.509)" fill="url(#linear-gradient-4)"/>
          <path id="Path_4115" data-name="Path 4115" d="M353.537,206.81s3.986-10.251-8.089-10.251v19.929h7.738Z" transform="translate(-337.528 -151.326)" fill="#22a6b3"/>
          <path id="Path_4116" data-name="Path 4116" d="M460.827,205.59v92.146H348.284a7.394,7.394,0,0,1-7.4-7.372V198.218a7.394,7.394,0,0,0,7.4,7.372Z" transform="translate(-340.884 -150.106)" fill="#3c4382"/>
          <path id="Path_4117" data-name="Path 4117" d="M460.827,205.59v92.146H348.284a7.394,7.394,0,0,1-7.4-7.372V198.218a7.394,7.394,0,0,0,7.4,7.372Z" transform="translate(-340.884 -150.106)" opacity="0.2" fill="url(#linear-gradient-5)"/>
        </g>
        <g id="Group_605" data-name="Group 605" transform="translate(151.659)">
          <rect id="Rectangle_896" data-name="Rectangle 896" width="59.351" height="104.079" transform="translate(0 42.011) rotate(-45.059)" fill="#fbb03b"/>
          <path id="Path_4118" data-name="Path 4118" d="M486.01,176.6l-31.428,31.492a7.988,7.988,0,0,0-6.166.007l-63.153-63.023a7.988,7.988,0,0,0-.007-6.166l31.428-31.494a7.988,7.988,0,0,0,6.166-.005L486,170.433A7.988,7.988,0,0,0,486.01,176.6Z" transform="translate(-377.836 -99.989)" fill="#f6e58d"/>
          <circle id="Ellipse_114" data-name="Ellipse 114" cx="22.709" cy="22.709" r="22.709" transform="translate(35.089 35.056)" fill="#f0932b"/>
          <path id="Path_4119" data-name="Path 4119" d="M424.522,148.335a7.31,7.31,0,0,0-.6-3.415,28.867,28.867,0,0,0-1.747-3.3c-.118-.2-.241-.4-.368-.606-.59-.984-1.057-1.8-1.393-2.454-.045-.09-.087-.177-.128-.259a5.176,5.176,0,0,1-.571-1.99,2.079,2.079,0,0,1,.652-1.659,2.679,2.679,0,0,1,2.509-.732,4.475,4.475,0,0,1,1.555.649,10.1,10.1,0,0,1,1.742,1.444,11.257,11.257,0,0,1,.774.864,12.843,12.843,0,0,1,1.175,1.756,13.348,13.348,0,0,1,1.282,3.228l3.348-1.4a11.721,11.721,0,0,0-1.423-3.6,17.163,17.163,0,0,0-1.814-2.53l2.44-2.424-2.4-2.419-2.522,2.506a10.759,10.759,0,0,0-2.593-1.5,7.107,7.107,0,0,0-4.01-.474,6.252,6.252,0,0,0-3.231,1.734,5.354,5.354,0,0,0-1.753,3.408,7.137,7.137,0,0,0,.592,3.4,28.891,28.891,0,0,0,1.5,2.867c.2.347.413.71.644,1.083q.68,1.125,1.128,1.964c.151.271.281.521.394.746a5.123,5.123,0,0,1,.559,2,2.129,2.129,0,0,1-.663,1.669,2.528,2.528,0,0,1-2.462.64,5.265,5.265,0,0,1-1.952-.961,11.911,11.911,0,0,1-1.374-1.2,12.318,12.318,0,0,1-1.047-1.2,13.176,13.176,0,0,1-1.392-2.27,11.81,11.81,0,0,1-1.161-3.794l-3.44,1.309a10.9,10.9,0,0,0,1.359,4.253,17.432,17.432,0,0,0,2.062,3.058l-2.464,2.449,2.4,2.419,2.482-2.466a11.23,11.23,0,0,0,2.969,1.8,7.123,7.123,0,0,0,4.014.495,6.116,6.116,0,0,0,3.216-1.721A5.212,5.212,0,0,0,424.522,148.335Z" transform="translate(-362.02 -83.755)" fill="#f6e58d"/>
        </g>
        <g id="Group_606" data-name="Group 606" transform="translate(0 103.451)">
          <rect id="Rectangle_897" data-name="Rectangle 897" width="98.812" height="56.347" transform="translate(0 88.509) rotate(-63.603)" fill="#fbb03b"/>
          <path id="Path_4120" data-name="Path 4120" d="M340.108,166.058l37.837,18.779a7.574,7.574,0,0,0,1.867,5.548l-37.66,75.873a7.589,7.589,0,0,0-5.548,1.867l-37.837-18.78A7.585,7.585,0,0,0,296.9,243.8l37.66-75.875A7.58,7.58,0,0,0,340.108,166.058Z" transform="translate(-291.154 -160.311)" fill="#f6e58d"/>
          <circle id="Ellipse_115" data-name="Ellipse 115" cx="21.559" cy="21.559" r="21.559" transform="translate(25.642 35.221)" fill="#f0932b"/>
          <path id="Path_4121" data-name="Path 4121" d="M331.337,193.973a6.942,6.942,0,0,0-2.893,1.571,27.006,27.006,0,0,0-2.437,2.568c-.142.165-.288.338-.436.514-.708.828-1.3,1.494-1.787,1.994-.068.068-.134.132-.194.194a4.908,4.908,0,0,1-1.619,1.116,1.97,1.97,0,0,1-1.69-.087,2.541,2.541,0,0,1-1.416-2.039,4.229,4.229,0,0,1,.115-1.595,9.666,9.666,0,0,1,.772-2q.245-.484.545-.956a12.214,12.214,0,0,1,1.227-1.588,12.767,12.767,0,0,1,2.518-2.131l-2.273-2.589a11.146,11.146,0,0,0-2.815,2.371,16.356,16.356,0,0,0-1.73,2.395l-2.917-1.463-1.453,2.895,3.016,1.511a10.1,10.1,0,0,0-.564,2.787,6.74,6.74,0,0,0,.784,3.754,5.915,5.915,0,0,0,2.535,2.383,5.07,5.07,0,0,0,3.6.548,6.765,6.765,0,0,0,2.882-1.558,27.817,27.817,0,0,0,2.128-2.213c.252-.285.515-.588.781-.906q.807-.953,1.428-1.609c.2-.219.384-.413.552-.581a4.868,4.868,0,0,1,1.635-1.107,2.027,2.027,0,0,1,1.7.092,2.4,2.4,0,0,1,1.319,2.023,4.991,4.991,0,0,1-.274,2.048,11.446,11.446,0,0,1-.668,1.6,11.845,11.845,0,0,1-.764,1.3,12.444,12.444,0,0,1-1.623,1.938,11.224,11.224,0,0,1-3.065,2.192l2.218,2.7a10.361,10.361,0,0,0,3.417-2.508,16.616,16.616,0,0,0,2.129-2.778l2.948,1.479,1.451-2.895-2.967-1.489a10.638,10.638,0,0,0,.725-3.216,6.754,6.754,0,0,0-.769-3.762,5.808,5.808,0,0,0-2.518-2.376A4.951,4.951,0,0,0,331.337,193.973Z" transform="translate(-279.423 -143.484)" fill="#f6e58d"/>
        </g>
        <g id="Group_608" data-name="Group 608" transform="translate(44.771 7.718)">
          <path id="Path_4122" data-name="Path 4122" d="M411.008,153.39A45.81,45.81,0,1,0,365.2,199.2q1.224,0,2.431-.066l18.57,19.447V194.1A45.8,45.8,0,0,0,411.008,153.39Z" transform="translate(-319.388 -107.581)" fill="#e87658"/>
          <g id="Group_607" data-name="Group 607" transform="translate(12.913 22.113)">
            <path id="Path_4123" data-name="Path 4123" d="M392.624,128.877l-38.838,38.838-26.957-26.957,8.554-8.554,18.4,18.4,30.284-30.284Z" transform="translate(-326.829 -120.324)" fill="#fff"/>
          </g>
        </g>
      </g>
    </g>
  </g>
</svg>
