<svg xmlns="http://www.w3.org/2000/svg" xmlns:xlink="http://www.w3.org/1999/xlink" width="238" height="345.93" viewBox="0 0 238 345.93">
  <defs>
    <linearGradient id="linear-gradient" y1="0.5" x2="1" y2="0.5" gradientUnits="objectBoundingBox">
      <stop offset="0" stop-color="#7ed6df"/>
      <stop offset="1" stop-color="#7ed6df" stop-opacity="0"/>
    </linearGradient>
    <linearGradient id="linear-gradient-2" x1="0.5" y1="0.278" x2="0.5" y2="0.747" xlink:href="#linear-gradient"/>
    <linearGradient id="linear-gradient-3" x1="0.5" y1="0.81" x2="0.5" y2="0.153" gradientUnits="objectBoundingBox">
      <stop offset="0" stop-color="#f6e58d"/>
      <stop offset="1" stop-color="#f6e58d" stop-opacity="0"/>
    </linearGradient>
    <clipPath id="clip-path">
      <path id="Path_4073" data-name="Path 4073" d="M250.427,130.755v229.1c0,7.252-5.536,13.132-12.361,13.132H122.7c-6.826,0-12.361-5.88-12.361-13.132v-229.1c0-7.253,5.536-13.134,12.361-13.134H238.066C244.891,117.621,250.427,123.5,250.427,130.755Z" transform="translate(-110.341 -117.621)" fill="none"/>
    </clipPath>
    <linearGradient id="linear-gradient-4" x1="0.109" y1="0.712" x2="0.109" y2="0.056" gradientUnits="objectBoundingBox">
      <stop offset="0" stop-color="#fff"/>
      <stop offset="1" stop-color="#fff" stop-opacity="0"/>
    </linearGradient>
    <linearGradient id="linear-gradient-5" x1="-0.898" y1="0.777" x2="-0.898" y2="0.12" xlink:href="#linear-gradient-4"/>
    <clipPath id="clip-path-2">
      <path id="Path_4097" data-name="Path 4097" d="M211.617,144.849c-5.8-6-23.088-5.49-36.685-.336s-24.664,11.11-20.33,23.387,23.738,10.929,37.44,6.055C214.181,166.082,218.24,151.707,211.617,144.849Z" transform="translate(-153.648 -140.497)" fill="none"/>
    </clipPath>
  </defs>
  <g id="Group_594" data-name="Group 594" transform="translate(-82.377 -91.077)">
    <g id="Group_573" data-name="Group 573" transform="translate(82.377 91.077)">
      <g id="Group_571" data-name="Group 571" transform="translate(5.72 10.962)">
        <path id="Path_4047" data-name="Path 4047" d="M104.469,307.26s.157-12.667,12.668-12.667c0,0-12.668-.157-12.668-12.668,0,0-.157,12.668-12.668,12.668C91.8,294.593,104.469,294.748,104.469,307.26Z" transform="translate(-82.132 18.755)" fill="#f9ca24"/>
        <path id="Path_4048" data-name="Path 4048" d="M99.9,132.236s.157-12.668,12.668-12.668c0,0-12.668-.155-12.668-12.667,0,0-.157,12.667-12.668,12.667C87.233,119.568,99.9,119.724,99.9,132.236Z" transform="translate(-85.024 -92.023)" fill="#f9ca24"/>
        <path id="Path_4049" data-name="Path 4049" d="M225.279,155.9s.157-12.668,12.668-12.668c0,0-12.668-.157-12.668-12.667,0,0-.157,12.667-12.668,12.667C212.611,143.236,225.279,143.392,225.279,155.9Z" transform="translate(-5.668 -77.043)" fill="#f9ca24"/>
        <path id="Path_4050" data-name="Path 4050" d="M219.762,266.881s.157-12.668,12.668-12.668c0,0-12.668-.157-12.668-12.668,0,0-.157,12.668-12.668,12.668C207.094,254.212,219.762,254.369,219.762,266.881Z" transform="translate(-9.16 -6.803)" fill="#f9ca24"/>
        <path id="Path_4051" data-name="Path 4051" d="M152.327,308.69s.091-7.438,7.438-7.438c0,0-7.438-.093-7.438-7.44,0,0-.093,7.44-7.44,7.44C144.887,301.252,152.327,301.343,152.327,308.69Z" transform="translate(-48.532 26.279)" fill="#f9ca24"/>
        <path id="Path_4052" data-name="Path 4052" d="M93.318,209.555s.093-7.44,7.44-7.44c0,0-7.44-.091-7.44-7.438,0,0-.091,7.438-7.438,7.438C85.88,202.115,93.318,202.206,93.318,209.555Z" transform="translate(-85.88 -36.467)" fill="#f9ca24"/>
        <path id="Path_4053" data-name="Path 4053" d="M118.159,112.668s.091-7.44,7.438-7.44c0,0-7.438-.091-7.438-7.438,0,0-.093,7.438-7.44,7.438C110.719,105.228,118.159,105.319,118.159,112.668Z" transform="translate(-70.159 -97.79)" fill="#f9ca24"/>
        <path id="Path_4054" data-name="Path 4054" d="M213.179,183.1s.093-7.438,7.44-7.438c0,0-7.44-.091-7.44-7.44,0,0-.091,7.44-7.438,7.44C205.741,175.659,213.179,175.75,213.179,183.1Z" transform="translate(-10.016 -53.213)" fill="#f9ca24"/>
        <path id="Path_4055" data-name="Path 4055" d="M210.405,292.146s.091-7.44,7.44-7.44c0,0-7.44-.091-7.44-7.438,0,0-.091,7.438-7.438,7.438C202.967,284.706,210.405,284.8,210.405,292.146Z" transform="translate(-11.772 15.808)" fill="#f9ca24"/>
      </g>
      <g id="Group_572" data-name="Group 572">
        <path id="Path_4056" data-name="Path 4056" d="M98.986,189.909a14.473,14.473,0,1,1,14.474-14.474A14.49,14.49,0,0,1,98.986,189.909Zm0-24.569a10.1,10.1,0,1,0,10.1,10.095A10.106,10.106,0,0,0,98.986,165.34Z" transform="translate(-81.025 -46.844)" fill="#7ed6df"/>
        <path id="Path_4057" data-name="Path 4057" d="M220.462,231.759a14.474,14.474,0,1,1,14.474-14.473A14.491,14.491,0,0,1,220.462,231.759Zm0-24.569a10.1,10.1,0,1,0,10.1,10.1A10.109,10.109,0,0,0,220.462,207.19Z" transform="translate(-4.139 -20.356)" fill="#7ed6df"/>
        <path id="Path_4058" data-name="Path 4058" d="M110.436,275.183a28.057,28.057,0,1,1,28.055-28.057A28.09,28.09,0,0,1,110.436,275.183Zm0-51.738a23.68,23.68,0,1,0,23.678,23.681A23.709,23.709,0,0,0,110.436,223.445Z" transform="translate(-82.377 -10.067)" fill="url(#linear-gradient)"/>
        <path id="Path_4059" data-name="Path 4059" d="M181.912,147.189a28.056,28.056,0,1,1,28.057-28.057A28.088,28.088,0,0,1,181.912,147.189Zm0-51.735a23.679,23.679,0,1,0,23.679,23.678A23.7,23.7,0,0,0,181.912,95.455Z" transform="translate(-37.136 -91.077)" fill="url(#linear-gradient-2)"/>
      </g>
    </g>
    <g id="Group_593" data-name="Group 593" transform="translate(122.568 125.333)">
      <path id="Path_4060" data-name="Path 4060" d="M235.809,124.1H120.445c-7.42,0-13.455,6.383-13.455,14.228v229.1c0,7.845,6.035,14.228,13.455,14.228H235.809c7.42,0,13.455-6.383,13.455-14.228v-229.1C249.264,130.483,243.229,124.1,235.809,124.1Z" transform="translate(-106.99 -104.432)" fill="#30336b" opacity="0.1"/>
      <path id="Path_4061" data-name="Path 4061" d="M250.427,130.755v229.1c0,7.252-5.536,13.132-12.361,13.132H122.7c-6.826,0-12.361-5.88-12.361-13.132v-229.1c0-7.253,5.536-13.134,12.361-13.134H238.066C244.891,117.621,250.427,123.5,250.427,130.755Z" transform="translate(-104.869 -108.533)" fill="#dff9fb"/>
      <rect id="Rectangle_870" data-name="Rectangle 870" width="52.532" height="52.532" rx="5.625" transform="translate(17.146 55.784)" fill="#7ed6df"/>
      <rect id="Rectangle_871" data-name="Rectangle 871" width="52.532" height="52.532" rx="5.625" transform="translate(81.352 55.784)" fill="#7ed6df"/>
      <rect id="Rectangle_872" data-name="Rectangle 872" width="52.532" height="52.532" rx="5.625" transform="translate(17.146 118.53)" fill="#7ed6df"/>
      <rect id="Rectangle_873" data-name="Rectangle 873" width="52.532" height="52.532" rx="5.625" transform="translate(17.146 181.276)" fill="#7ed6df"/>
      <rect id="Rectangle_874" data-name="Rectangle 874" width="52.532" height="52.532" rx="5.625" transform="translate(81.352 181.276)" fill="#7ed6df"/>
      <g id="Group_574" data-name="Group 574" transform="translate(23.226 70.4)">
        <path id="Path_4062" data-name="Path 4062" d="M158.277,175.119a17.8,17.8,0,0,0-35.6,0Z" transform="translate(-120.289 -153.807)" fill="#fff"/>
        <path id="Path_4063" data-name="Path 4063" d="M136.149,157.712a.739.739,0,0,0,.683-1.024,2.545,2.545,0,0,0-4.659,0,.739.739,0,0,0,.683,1.024Z" transform="translate(-114.316 -155.168)" fill="#fff"/>
        <rect id="Rectangle_875" data-name="Rectangle 875" width="40.372" height="1.272" transform="translate(0 22.663)" fill="#fff"/>
      </g>
      <g id="Group_575" data-name="Group 575" transform="translate(23.226 129.943)">
        <path id="Path_4064" data-name="Path 4064" d="M158.277,211.583a17.8,17.8,0,1,0-35.6,0Z" transform="translate(-120.289 -190.272)" fill="#fff"/>
        <path id="Path_4065" data-name="Path 4065" d="M136.149,194.174a.738.738,0,0,0,.683-1.022,2.545,2.545,0,0,0-4.659,0,.738.738,0,0,0,.683,1.022Z" transform="translate(-114.316 -191.632)" fill="#fff"/>
        <rect id="Rectangle_876" data-name="Rectangle 876" width="40.372" height="1.272" transform="translate(0 22.663)" fill="#fff"/>
      </g>
      <g id="Group_576" data-name="Group 576" transform="translate(87.432 70.4)">
        <path id="Path_4066" data-name="Path 4066" d="M197.6,175.119a17.8,17.8,0,0,0-35.6,0Z" transform="translate(-159.609 -153.807)" fill="#fff"/>
        <path id="Path_4067" data-name="Path 4067" d="M175.468,157.712a.739.739,0,0,0,.683-1.024,2.545,2.545,0,0,0-4.659,0,.739.739,0,0,0,.683,1.024Z" transform="translate(-153.635 -155.168)" fill="#fff"/>
        <rect id="Rectangle_877" data-name="Rectangle 877" width="40.372" height="1.272" transform="translate(0 22.663)" fill="#fff"/>
      </g>
      <g id="Group_577" data-name="Group 577" transform="translate(23.226 195.576)">
        <path id="Path_4068" data-name="Path 4068" d="M158.277,251.776a17.8,17.8,0,1,0-35.6,0Z" transform="translate(-120.289 -230.465)" fill="#fff"/>
        <path id="Path_4069" data-name="Path 4069" d="M136.149,234.367a.738.738,0,0,0,.683-1.022,2.545,2.545,0,0,0-4.659,0,.738.738,0,0,0,.683,1.022Z" transform="translate(-114.316 -231.825)" fill="#fff"/>
        <rect id="Rectangle_878" data-name="Rectangle 878" width="40.372" height="1.272" transform="translate(0 22.662)" fill="#fff"/>
      </g>
      <g id="Group_578" data-name="Group 578" transform="translate(87.432 195.576)">
        <path id="Path_4070" data-name="Path 4070" d="M197.6,251.776a17.8,17.8,0,1,0-35.6,0Z" transform="translate(-159.609 -230.465)" fill="#fff"/>
        <path id="Path_4071" data-name="Path 4071" d="M175.468,234.367a.738.738,0,0,0,.683-1.022,2.545,2.545,0,0,0-4.659,0,.738.738,0,0,0,.683,1.022Z" transform="translate(-153.635 -231.825)" fill="#fff"/>
        <rect id="Rectangle_879" data-name="Rectangle 879" width="40.372" height="1.272" transform="translate(0 22.662)" fill="#fff"/>
      </g>
      <rect id="Rectangle_880" data-name="Rectangle 880" width="61.168" height="61.168" rx="5.625" transform="translate(77.034 114.212)" fill="#f6e58d"/>
      <path id="Path_4072" data-name="Path 4072" d="M209.236,248.563H163.277a11.507,11.507,0,0,1-11.494-11.494V191.11a11.508,11.508,0,0,1,11.494-11.494h45.959A11.508,11.508,0,0,1,220.73,191.11v45.959A11.507,11.507,0,0,1,209.236,248.563ZM163.277,181.8a9.318,9.318,0,0,0-9.306,9.306v45.959a9.317,9.317,0,0,0,9.306,9.306h45.959a9.317,9.317,0,0,0,9.306-9.306V191.11a9.318,9.318,0,0,0-9.306-9.306Z" transform="translate(-78.639 -69.294)" fill="url(#linear-gradient-3)"/>
      <g id="Group_580" data-name="Group 580" transform="translate(5.472 9.088)" opacity="0.4">
        <g id="Group_579" data-name="Group 579" clip-path="url(#clip-path)">
          <rect id="Rectangle_881" data-name="Rectangle 881" width="46.73" height="289.898" transform="translate(124.4 -13.132) rotate(27.109)" fill="url(#linear-gradient-4)"/>
          <rect id="Rectangle_882" data-name="Rectangle 882" width="16.295" height="289.898" transform="matrix(0.89, 0.456, -0.456, 0.89, 101.452, -24.88)" fill="url(#linear-gradient-5)"/>
        </g>
      </g>
      <g id="Group_581" data-name="Group 581" transform="translate(84.114 130.861)">
        <path id="Path_4074" data-name="Path 4074" d="M201.656,215.425a20.728,20.728,0,1,0-41.455,0Z" transform="translate(-157.425 -190.61)" fill="#fff"/>
        <path id="Path_4075" data-name="Path 4075" d="M175.891,195.156a.86.86,0,0,0,.794-1.192,2.962,2.962,0,0,0-5.423,0,.86.86,0,0,0,.794,1.192Z" transform="translate(-150.469 -192.194)" fill="#fff"/>
        <rect id="Rectangle_883" data-name="Rectangle 883" width="47.009" height="1.481" transform="translate(0 26.389)" fill="#fff"/>
      </g>
      <rect id="Rectangle_884" data-name="Rectangle 884" width="11.917" height="11.917" transform="translate(17.146 33.652)" fill="#7ed6df"/>
      <rect id="Rectangle_885" data-name="Rectangle 885" width="96.43" height="11.917" transform="translate(37.454 33.652)" fill="#7ed6df"/>
      <path id="Path_4076" data-name="Path 4076" d="M238.49,374.5H123.126c-7.42,0-13.455-6.382-13.455-14.226v-229.1c0-7.845,6.035-14.228,13.455-14.228H238.49c7.42,0,13.455,6.383,13.455,14.228v229.1C251.945,368.121,245.91,374.5,238.49,374.5ZM123.126,119.141c-6.213,0-11.266,5.4-11.266,12.038v229.1c0,6.638,5.052,12.038,11.266,12.038H238.49c6.212,0,11.266-5.4,11.266-12.038v-229.1c0-6.638-5.054-12.038-11.266-12.038Z" transform="translate(-105.293 -108.957)" fill="#30336b"/>
      <path id="Path_4077" data-name="Path 4077" d="M250.427,265.068v1.46c0,7.252-5.536,13.132-12.361,13.132H122.7c-6.826,0-12.361-5.88-12.361-13.132v-1.46Z" transform="translate(-104.869 -15.209)" fill="#30336b"/>
      <path id="Path_4078" data-name="Path 4078" d="M110.341,132.213v-1.458c0-7.252,5.536-13.134,12.361-13.134H238.066c6.826,0,12.361,5.882,12.361,13.134v1.458Z" transform="translate(-104.869 -108.533)" fill="#30336b"/>
      <g id="Group_592" data-name="Group 592" transform="translate(53.982 0)">
        <path id="Path_4079" data-name="Path 4079" d="M247.32,171.853A53.636,53.636,0,1,0,159.282,213a107.354,107.354,0,0,1,26.886,34.458l2.446,4.894a5.668,5.668,0,0,0,10.139,0l2.756-5.513a110.346,110.346,0,0,1,27.076-34.262A53.507,53.507,0,0,0,247.32,171.853Z" transform="translate(-140.048 -108.156)" fill="#22a6b3"/>
        <circle id="Ellipse_105" data-name="Ellipse 105" cx="46.058" cy="46.058" r="46.058" transform="translate(7.578 17.639)" fill="#7ed6df"/>
        <circle id="Ellipse_106" data-name="Ellipse 106" cx="43.633" cy="43.633" r="43.633" transform="translate(10.003 20.064)" fill="#fff"/>
        <g id="Group_589" data-name="Group 589" transform="translate(15.341 42.898)">
          <path id="Path_4080" data-name="Path 4080" d="M183.963,139.4c-16.844,2.441-34.52,13.708-34.52,24.892s2.574,20.2,30.813,20.252c20.595.039,45.778-17.657,45.778-28.841S213.877,135.067,183.963,139.4Zm10.74,35.928c-13.7,4.874-33.108,6.221-37.44-6.055s6.733-18.232,20.33-23.387,30.887-5.666,36.685.336C220.9,153.081,216.842,167.456,194.7,175.328Z" transform="translate(-149.443 -138.326)" fill="#f6e58d"/>
          <g id="Group_588" data-name="Group 588" transform="translate(5.426 3.545)">
            <path id="Path_4081" data-name="Path 4081" d="M210.735,147.054c-5.8-6-23.088-5.49-36.685-.336s-24.664,11.11-20.33,23.387,23.738,10.928,37.44,6.055C213.3,168.287,217.358,153.912,210.735,147.054Z" transform="translate(-152.766 -139.101)" fill="#30336b"/>
            <path id="Path_4082" data-name="Path 4082" d="M211.617,144.849c-5.8-6-23.088-5.49-36.685-.336s-24.664,11.11-20.33,23.387,23.738,10.929,37.44,6.055C214.181,166.082,218.24,151.707,211.617,144.849Zm-22.131,25c-10.495,3.731-25.3,5.283-28.62-4.12s5.888-13.906,16.3-17.853,23.658-4.342,28.1.255C210.342,153.379,206.444,163.814,189.486,169.844Z" transform="translate(-152.207 -140.497)" fill="#e87658"/>
            <path id="Path_4083" data-name="Path 4083" d="M186.955,168.178c-10.495,3.731-25.3,5.283-28.62-4.12s5.888-13.906,16.3-17.853,23.658-4.342,28.1.255C207.811,151.713,203.913,162.148,186.955,168.178Z" transform="translate(-149.677 -138.831)" fill="#efa147"/>
            <path id="Path_4084" data-name="Path 4084" d="M176.11,148.7c0,.6-.945,1.084-2.111,1.084s-2.111-.485-2.111-1.084.945-1.083,2.111-1.083S176.11,148.1,176.11,148.7Z" transform="translate(-140.663 -135.99)" fill="#e87658"/>
            <path id="Path_4085" data-name="Path 4085" d="M180.293,146.815c0,.6-.945,1.083-2.111,1.083s-2.11-.485-2.11-1.083.944-1.084,2.11-1.084S180.293,146.216,180.293,146.815Z" transform="translate(-138.014 -137.184)" fill="#ffc483"/>
            <path id="Path_4086" data-name="Path 4086" d="M173.965,146.154c0,.6-.944,1.083-2.11,1.083s-2.111-.485-2.111-1.083.945-1.084,2.111-1.084S173.965,145.555,173.965,146.154Z" transform="translate(-142.02 -137.602)" fill="#ffc483"/>
            <path id="Path_4087" data-name="Path 4087" d="M170.939,151.277c0,.6-.945,1.083-2.111,1.083s-2.111-.483-2.111-1.083.945-1.083,2.111-1.083S170.939,150.679,170.939,151.277Z" transform="translate(-143.936 -134.359)" fill="#e87658"/>
            <path id="Path_4088" data-name="Path 4088" d="M169.555,148.845c0,.6-.945,1.083-2.111,1.083s-2.111-.485-2.111-1.083.945-1.084,2.111-1.084S169.555,148.246,169.555,148.845Z" transform="translate(-144.812 -135.899)" fill="#e87658"/>
            <path id="Path_4089" data-name="Path 4089" d="M165.3,153.914c0,.6-.945,1.083-2.111,1.083s-2.111-.485-2.111-1.083.945-1.084,2.111-1.084S165.3,153.315,165.3,153.914Z" transform="translate(-147.503 -132.691)" fill="#ffc483"/>
            <path id="Path_4090" data-name="Path 4090" d="M164.349,152.057c0,.6-.945,1.083-2.111,1.083s-2.11-.485-2.11-1.083.944-1.083,2.11-1.083S164.349,151.457,164.349,152.057Z" transform="translate(-148.106 -133.865)" fill="#e87658"/>
            <path id="Path_4091" data-name="Path 4091" d="M178.033,152.4c0,.6-.946,1.083-2.111,1.083s-2.11-.485-2.11-1.083.944-1.083,2.11-1.083S178.033,151.8,178.033,152.4Z" transform="translate(-139.445 -133.65)" fill="#ffc483"/>
            <path id="Path_4092" data-name="Path 4092" d="M183.306,149.744c0,.6-.945,1.083-2.111,1.083s-2.11-.485-2.11-1.083.944-1.084,2.11-1.084S183.306,149.145,183.306,149.744Z" transform="translate(-136.107 -135.33)" fill="#e87658"/>
            <ellipse id="Ellipse_107" data-name="Ellipse 107" cx="2.111" cy="1.083" rx="2.111" ry="1.083" transform="translate(41.127 21.163)" fill="#e87658"/>
            <path id="Path_4093" data-name="Path 4093" d="M174.243,154.31c0,.6-.945,1.084-2.111,1.084s-2.111-.485-2.111-1.084.945-1.083,2.111-1.083S174.243,153.712,174.243,154.31Z" transform="translate(-141.845 -132.439)" fill="#ffc483"/>
            <ellipse id="Ellipse_108" data-name="Ellipse 108" cx="2.111" cy="1.083" rx="2.111" ry="1.083" transform="translate(30.898 26.009)" fill="#ffc483"/>
            <path id="Path_4094" data-name="Path 4094" d="M167.948,158.733c0,.6-.944,1.083-2.11,1.083s-2.111-.485-2.111-1.083.945-1.083,2.111-1.083S167.948,158.135,167.948,158.733Z" transform="translate(-145.828 -129.64)" fill="#ffc483"/>
            <ellipse id="Ellipse_109" data-name="Ellipse 109" cx="2.111" cy="1.083" rx="2.111" ry="1.083" transform="translate(22.899 24.089)" fill="#e87658"/>
            <g id="Group_587" data-name="Group 587" transform="translate(1.44)">
              <g id="Group_586" data-name="Group 586" clip-path="url(#clip-path-2)">
                <g id="Group_583" data-name="Group 583" transform="translate(19.225 1.281)">
                  <g id="Group_582" data-name="Group 582">
                    <path id="Path_4095" data-name="Path 4095" d="M176.59,158.48l-8.6-10.461.01-.069a3.025,3.025,0,0,0-.416-2.587,2.3,2.3,0,0,0-1.994-.46.154.154,0,0,1-.038-.305,2.567,2.567,0,0,1,2.253.552,3.192,3.192,0,0,1,.509,2.779l8.339,10.149L196.045,146.3c-.2-2.441.064-4.719,3.129-5.02a.153.153,0,0,1,.168.137.156.156,0,0,1-.139.17c-2.68.263-3.075,2.1-2.843,4.781l.008.095-.082.051Z" transform="translate(-165.421 -141.282)" fill="#e84d4f"/>
                  </g>
                </g>
                <g id="Group_585" data-name="Group 585" transform="translate(1.783 18.093)">
                  <g id="Group_584" data-name="Group 584">
                    <path id="Path_4096" data-name="Path 4096" d="M194.7,165.8h-.016a.155.155,0,0,1-.137-.17,3.543,3.543,0,0,0-.652-2.846,3.2,3.2,0,0,0-2.546-.779l-.078,0-.047-.062-7.889-10-22.347,8.715-.069-.049a3.5,3.5,0,0,0-2.943-.847c-1.1.291-2.085,1.409-2.941,3.328a.155.155,0,1,1-.283-.126c.908-2.036,1.937-3.181,3.143-3.5a3.742,3.742,0,0,1,3.137.846l22.4-8.736,7.98,10.118a3.423,3.423,0,0,1,2.7.877,3.826,3.826,0,0,1,.735,3.09A.154.154,0,0,1,194.7,165.8Z" transform="translate(-154.74 -151.577)" fill="#e84d4f"/>
                  </g>
                </g>
              </g>
            </g>
          </g>
        </g>
        <g id="Group_591" data-name="Group 591" transform="translate(66.8)">
          <circle id="Ellipse_110" data-name="Ellipse 110" cx="19.7" cy="19.7" r="19.7" transform="translate(0 38.356) rotate(-76.787)" fill="#e87658"/>
          <g id="Group_590" data-name="Group 590" transform="translate(9.534 13.491)">
            <path id="Path_4098" data-name="Path 4098" d="M215.089,124l-16.7,16.7L186.795,129.1l3.678-3.678,7.914,7.914,13.023-13.023Z" transform="translate(-186.795 -120.317)" fill="#fff"/>
          </g>
        </g>
      </g>
    </g>
  </g>
</svg>
