<svg id="chat" xmlns="http://www.w3.org/2000/svg" width="29" height="29" viewBox="0 0 29 29">
  <g id="Group_407" data-name="Group 407" transform="translate(5.438 5.438)">
    <g id="Group_406" data-name="Group 406">
      <path id="Path_3938" data-name="Path 3938" d="M107.781,96H96.906a.906.906,0,1,0,0,1.813h10.875a.906.906,0,0,0,0-1.813Z" transform="translate(-96 -96)" fill="#fff"/>
    </g>
  </g>
  <g id="Group_409" data-name="Group 409" transform="translate(5.438 9.063)">
    <g id="Group_408" data-name="Group 408">
      <path id="Path_3939" data-name="Path 3939" d="M104.156,160h-7.25a.906.906,0,1,0,0,1.813h7.25a.906.906,0,0,0,0-1.812Z" transform="translate(-96 -160)" fill="#fff"/>
    </g>
  </g>
  <g id="Group_411" data-name="Group 411">
    <g id="Group_410" data-name="Group 410">
      <path id="Path_3940" data-name="Path 3940" d="M19.938,0H3.625A3.629,3.629,0,0,0,0,3.625V21.75a.905.905,0,0,0,.522.821.919.919,0,0,0,.384.085.906.906,0,0,0,.58-.21l5.186-4.321H19.938A3.629,3.629,0,0,0,23.563,14.5V3.625A3.629,3.629,0,0,0,19.938,0ZM21.75,14.5a1.814,1.814,0,0,1-1.813,1.813H6.344a.905.905,0,0,0-.58.21L1.813,19.816V3.625A1.814,1.814,0,0,1,3.625,1.813H19.938A1.814,1.814,0,0,1,21.75,3.625Z" fill="#fff"/>
    </g>
  </g>
  <g id="Group_413" data-name="Group 413" transform="translate(7.25 7.25)">
    <g id="Group_412" data-name="Group 412">
      <path id="Path_3941" data-name="Path 3941" d="M146.125,128a.906.906,0,0,0,0,1.813,1.814,1.814,0,0,1,1.813,1.813v15.332l-3.059-2.447a.913.913,0,0,0-.566-.2H131.625a1.814,1.814,0,0,1-1.812-1.812v-.906a.906.906,0,0,0-1.812,0v.906a3.629,3.629,0,0,0,3.625,3.625h12.368l4.283,3.427a.907.907,0,0,0,1.474-.709V131.625A3.629,3.629,0,0,0,146.125,128Z" transform="translate(-128 -128)" fill="#fff"/>
    </g>
  </g>
</svg>
