<svg xmlns="http://www.w3.org/2000/svg" width="160" height="159.999" viewBox="0 0 160 159.999">
  <g id="Page-1" transform="translate(0 0)">
    <g id="_029---Preparing-Vegetables" data-name="029---Preparing-Vegetables" transform="translate(0 0)">
      <path id="Shape" d="M154.667,85.333V80a5.333,5.333,0,0,0-5.333-5.333h-32A5.333,5.333,0,0,0,112,80v5.333H72.171A39.816,39.816,0,0,0,77.333,64C77.333,48.8,71.6,37.333,64,37.333a51.067,51.067,0,0,1-13.512-2.949A40.053,40.053,0,0,0,40,32c-6.667,0-10.957,8.957-12.587,19.565-.9-.283-1.784-.573-2.768-.819a27.552,27.552,0,0,0-20.8,3.035,2.667,2.667,0,0,0,2.949,4.443,22.541,22.541,0,0,1,16.552-2.3c1.24.309,2.384.664,3.467,1.037-.027.411-.053.819-.075,1.229a40.5,40.5,0,0,0-23.3,11.928,2.667,2.667,0,1,0,3.771,3.771A35.405,35.405,0,0,1,26.7,63.589c.024.648.061,1.291.1,1.936A46.6,46.6,0,0,0,11.448,85.333H5.333A5.333,5.333,0,0,0,0,90.667v10.667a5.333,5.333,0,0,0,5.333,5.333H154.667A5.333,5.333,0,0,0,160,101.333V90.667a5.333,5.333,0,0,0-5.333-5.333ZM117.333,80h32v5.333h-32ZM40,37.333a39.024,39.024,0,0,1,8.909,2.133A54.523,54.523,0,0,0,64,42.667c3.264,0,8,8.312,8,21.333s-4.736,21.333-8,21.333H40c-2.72,0-6.456-6.515-7.627-17.165a43.88,43.88,0,0,1,8.565-4.336,2.653,2.653,0,0,0,.952-4.373,33.952,33.952,0,0,0-9.4-5.979C33.779,43.424,37.368,37.333,40,37.333Zm-12.48,34.5a37.571,37.571,0,0,0,4.592,13.5H17.272A42.168,42.168,0,0,1,27.52,71.837Zm127.147,29.5H5.333V90.667H154.667Z" transform="translate(0 53.332)" fill="#ffcb00"/>
      <path id="Shape-2" data-name="Shape" d="M62.922,33.293,32.751,3.125a10.667,10.667,0,0,0-15.085,0l-7.541,7.541a10.667,10.667,0,0,0,0,15.085l7.541,7.539L36.519,52.143a10.667,10.667,0,0,0,15.085,0l1.885-1.885,3.771,3.771-9.427,9.437a8.019,8.019,0,0,0,0,11.315l38.005,38a34.667,34.667,0,0,0,49.024,0,2.667,2.667,0,0,0,0-3.771l-64.4-64.4-6.179-6.179a5.181,5.181,0,0,0-1.363-5.136ZM40.293,48.378l-3.771-3.771,3.771-3.773a2.667,2.667,0,0,0-3.771-3.768l-3.771,3.773L23.322,31.41l3.771-3.771a2.667,2.667,0,0,0-3.771-3.773l-3.771,3.771L13.9,21.981a5.333,5.333,0,0,1,0-7.544L21.437,6.9a5.333,5.333,0,0,1,7.544,0L59.151,37.066,51.607,44.61l-3.771,3.768a5.459,5.459,0,0,1-7.544,0Zm16.971-1.885,3.773-3.771,3.771,3.771-3.773,3.771Zm5.659,9.429,5.656-5.659L121.514,103.2a18.667,18.667,0,0,1-24.36-1.736L57.263,61.578l5.653-5.653ZM110.351,117.6a29.139,29.139,0,0,1-20.741-8.592l-38-38a2.667,2.667,0,0,1,0-3.771l1.885-1.885,39.891,39.888a24,24,0,0,0,31.941,1.776l3.808,3.8a29.128,29.128,0,0,1-18.781,6.787Z" transform="translate(11.667 0)" fill="#ffcb00"/>
      <path id="Shape-3" data-name="Shape" d="M21.481,69.727a2.667,2.667,0,0,0,3.579-1.195c5.76-11.523.376-28,.141-28.7a2.67,2.67,0,0,0-5.067,1.685c.048.149,4.925,15.064.141,24.632a2.667,2.667,0,0,0,1.205,3.579Z" transform="translate(33.327 63.339)" fill="#ffcb00"/>
    </g>
  </g>
</svg>
