<svg xmlns="http://www.w3.org/2000/svg" width="171.54" height="191.41" viewBox="0 0 171.54 191.41">
  <path id="done" d="M72.859,176.456H29.908A15.006,15.006,0,0,1,14.913,161.5V48.6A15.006,15.006,0,0,1,29.908,33.646H53.419v3.738a22.431,22.431,0,1,0,44.862,0V33.646h23.552A14.971,14.971,0,0,1,136.787,48.6v57.572a7.477,7.477,0,1,0,14.954,0V48.6a29.942,29.942,0,0,0-29.908-29.908H98.281V7.477A7.477,7.477,0,0,0,90.8,0H60.9a7.476,7.476,0,0,0-7.477,7.477V18.692H29.908A29.941,29.941,0,0,0,0,48.6V161.5a29.941,29.941,0,0,0,29.908,29.908H72.859a7.477,7.477,0,1,0,0-14.954Zm-4.486-161.5H83.327V37.385a7.477,7.477,0,1,1-14.954,0Zm101.77,117.255-37,51.687c-.082.112-.165.223-.251.331a19.274,19.274,0,0,1-13.707,7.14q-.635.042-1.269.042a19.277,19.277,0,0,1-13.264-5.3L80.764,163.177a7.477,7.477,0,1,1,10.358-10.785L114.981,175.3a4.269,4.269,0,0,0,6.148-.318L157.984,123.5a7.477,7.477,0,1,1,12.159,8.705ZM51.55,89.349a7.477,7.477,0,0,1-7.477,7.477H40.335a7.477,7.477,0,1,1,0-14.954h3.738A7.477,7.477,0,0,1,51.55,89.349Zm68.04,0a7.477,7.477,0,0,1-7.477,7.477H70.242a7.477,7.477,0,1,1,0-14.954h41.871A7.477,7.477,0,0,1,119.59,89.349ZM51.55,119.257a7.477,7.477,0,0,1-7.477,7.477H40.335a7.477,7.477,0,0,1,0-14.954h3.738A7.477,7.477,0,0,1,51.55,119.257Zm68.04,0a7.477,7.477,0,0,1-7.477,7.477H70.242a7.477,7.477,0,0,1,0-14.954h41.871A7.477,7.477,0,0,1,119.59,119.257Zm0,0" transform="translate(0)" fill="#ffcb00"/>
</svg>
