<svg xmlns="http://www.w3.org/2000/svg" xmlns:xlink="http://www.w3.org/1999/xlink" width="227.874" height="181.361" viewBox="0 0 227.874 181.361">
  <defs>
    <clipPath id="clip-path">
      <rect id="Rectangle_958" data-name="Rectangle 958" width="132.577" height="166.875" fill="none"/>
    </clipPath>
  </defs>
  <g id="Log_Out_or_Sign_In_2" data-name="Log Out or Sign In 2" transform="translate(-182.691 -350.582)">
    <g id="Group_684" data-name="Group 684" transform="translate(182.691 350.582)">
      <g id="Group_678" data-name="Group 678" transform="translate(0 0.399)">
        <path id="Path_4234" data-name="Path 4234" d="M390.178,365.423l-.112,2.418-.146,3.119-1.388,30.013-.117,2.5-1.506,32.56-.121,2.618-1.263,27.231A11.758,11.758,0,0,1,374.333,476.9l-40.582,2.46-2.473.15-31.935,1.935-2.523.154-17.279,1.047-2.789.171L243.958,484.8l-2.718.167-27.661,1.676a11.765,11.765,0,0,1-12.409-9.419l-.329-1.789-.567-3.077-5.3-28.682-.525-2.848-4.569-24.768-.45-2.423-6.55-35.483a11.128,11.128,0,0,1-.15-1.151A10.757,10.757,0,0,1,182.9,374a11.831,11.831,0,0,1,11-9.4l39.928-2.423,2.573-.154,43.009-2.606,3.365-.2,25.885-1.572,2.61-.159h0l66.325-4.019A11.663,11.663,0,0,1,390.178,365.423Z" transform="translate(-182.691 -353.442)" fill="#ebedfc"/>
        <path id="Path_4235" data-name="Path 4235" d="M324.366,394.852a156.129,156.129,0,0,1-55.806,44.735A152.812,152.812,0,0,1,231.476,451.7l-.45-2.423a151.171,151.171,0,0,0,36.463-11.95A153.351,153.351,0,0,0,321,395.056Z" transform="translate(-224.288 -389.079)" fill="#fff"/>
        <path id="Path_4236" data-name="Path 4236" d="M1093.091,693.724l-.117,2.5q-1.6-.075-3.273-.1c-20.568-.275-38.564,5.5-53.521,17.166-18.888,14.735-30.225,37.017-32.277,60.9l-2.523.154c2.031-24.709,13.717-47.787,33.261-63.031,15.415-12.025,33.944-17.975,55.093-17.7C1090.872,693.64,1091.994,693.674,1093.091,693.724Z" transform="translate(-887.251 -646.193)" fill="#fff"/>
        <path id="Path_4237" data-name="Path 4237" d="M1167.673,392.8l-.146,3.119q-3.046,2-6.43,3.82a81.7,81.7,0,0,1-30.784,9.623q-2.57.225-5.058.225c-9.369,0-17.671-2.377-24.238-6.976-7.384-5.17-11.946-12.567-14.756-20.01l2.61-.158h0c2.673,6.8,6.909,13.451,13.576,18.121,16.628,11.641,40.587,6.067,57.461-3.027a83.762,83.762,0,0,0,7.76-4.737Z" transform="translate(-960.3 -378.398)" fill="#fff"/>
        <path id="Path_4238" data-name="Path 4238" d="M360,811.255a122,122,0,0,1-7.868,25.639l-2.789.171a120.552,120.552,0,0,0,8.2-26.26c3.173-17.412.763-31.6-6.446-37.951-7.551-6.65-23.091-6.988-40.565-.887-14.548,5.083-29.333,14.064-42.963,25.96l-.525-2.848c13.558-11.629,28.219-20.427,42.663-25.472,18.6-6.5,34.7-5.983,43.042,1.372C360.622,777.917,363.333,792.972,360,811.255Z" transform="translate(-255.282 -707.69)" fill="#fff"/>
        <path id="Path_4239" data-name="Path 4239" d="M352.506,1034.777l-2.718.167c7.193-20.072,8.99-35.812,3.865-39.181-5.683-3.736-23.267,6.434-44.264,29.65l-.567-3.077c8.46-9.19,16.882-16.862,24.338-22.111,7.009-4.937,16.5-10.082,21.865-6.55C361.971,998.243,359.261,1015.656,352.506,1034.777Z" transform="translate(-291.239 -903.417)" fill="#fff"/>
        <path id="Path_4240" data-name="Path 4240" d="M1303.776,933.745l-.121,2.618a40.272,40.272,0,0,0-53.037,40.708l-2.473.15a43.615,43.615,0,0,1,1.776-14.944,42.578,42.578,0,0,1,44.927-30.321A43.435,43.435,0,0,1,1303.776,933.745Z" transform="translate(-1099.559 -851.152)" fill="#fff"/>
        <path id="Path_4241" data-name="Path 4241" d="M236.4,415.011c-3.16,18.984-10.991,24.867-14.6,26.6a19.493,19.493,0,0,1-8.514,1.818c-7.605,0-16.766-3.586-26.66-10.549q-1.945-1.37-3.894-2.886a10.756,10.756,0,0,1,.171-3.006c15.627,12.546,29.412,16.4,37.814,12.367,2.523-1.209,9.961-6.246,13.109-24.188Z" transform="translate(-182.691 -406.428)" fill="#fff"/>
      </g>
      <path id="Path_4242" data-name="Path 4242" d="M203.553,1457.406c-9.728-13.022-9.751-26.434-5.036-29.913,4.541-3.352,16.429.332,25.945,11.6.229-6.3,2.612-11.588,5.8-12.362,3.858-.937,10.354,4.381,12.515,14.5,3.264-4.64,8.589-11.22,12.057-10.073,5.622,1.86,2.957,22.9,2.594,25.64Z" transform="translate(-193.671 -1276.342)" fill="#ebedfc"/>
      <path id="Path_4243" data-name="Path 4243" d="M1301.892,1469.642c8.836-11.829,8.857-24.011,4.575-27.172-4.125-3.045-14.923.3-23.568,10.536-.208-5.724-2.373-10.526-5.268-11.229-3.5-.851-9.4,3.979-11.368,13.17-2.965-4.215-7.8-10.192-10.952-9.15-5.106,1.689-2.686,20.8-2.357,23.291Z" transform="translate(-1103.014 -1289.325)" fill="#ebedfc"/>
      <g id="Group_679" data-name="Group 679" transform="translate(27.759 124.192)">
        <path id="Path_4244" data-name="Path 4244" d="M542.06,1276.247a13.262,13.262,0,0,1,.294,3.136c.021,1.549.045,3.093.065,4.641v0c.013.885.026,1.77.035,2.659q.03,1.9.056,3.807a1.751,1.751,0,0,1-.225,1.1.392.392,0,0,1-.055.062c-.528.584-1.79.637-1.7,1.412.046.406.485.622.8.878a2.29,2.29,0,0,1,.7,2.159,2.942,2.942,0,0,1-.166.624l-7.741.478c-.056-.151-.107-.307-.15-.463a10.933,10.933,0,0,1-.314-3.385c.039-.792.114-1.6.161-2.4.018-.323.031-.641.037-.959a8.055,8.055,0,0,0-.692-3.759c-.554-1.123-1.525-2.166-1.414-3.417a13.8,13.8,0,0,1,.906-2.437,3.3,3.3,0,0,0,.1-1.214,5.533,5.533,0,0,0-1.235-2.819c-.9-1.139-2.057-2.054-2.959-3.192a9.338,9.338,0,0,1-2.017-5.465,3.268,3.268,0,0,1,.481-2.085c.7-.941,2.274-1.456,2.111-2.612-.106-.771-.961-1.152-1.552-1.659-1.632-1.394-1.335-3.953-.9-6.056q.981-4.71,1.958-9.42c.37-1.782,1.042-3.9,2.811-4.335a3.579,3.579,0,0,1,3.429,1.48,27.126,27.126,0,0,1,1.981,3.4c.979,1.644,2.364,3.037,3.206,4.756s1,4.02-.371,5.362c-.185.183-.417.422-.318.663.073.175.278.237.454.31,1.034.442,1.372,1.716,1.541,2.829.091.592.165,1.18.227,1.774a42.376,42.376,0,0,1-.023,9.292,10.057,10.057,0,0,0-.084,2.892C541.625,1274.953,541.894,1275.587,542.06,1276.247Z" transform="translate(-506.203 -1241.456)" fill="#9fa3bf"/>
        <path id="Path_4245" data-name="Path 4245" d="M578.327,1344.21q.1,2.087.188,4.266c.115,3.009.2,6.15.234,9.393,0,.33.008.664.011,1l-.42.026,0-.677c0-.025,0-.05,0-.071-.039-3.54-.133-6.956-.264-10.214q-.086-2.094-.186-4.091c-.93-17.952-2.912-30.291-2.939-30.46l.413-.067C575.389,1313.487,577.4,1326.019,578.327,1344.21Z" transform="translate(-548.024 -1303.296)" fill="#fff"/>
        <path id="Path_4246" data-name="Path 4246" d="M632.905,1275.32c-.031,1.4-.178,5.63-.849,11.144a.38.38,0,0,1-.55.293.381.381,0,0,0-.531.467l.717,2.007c-.406,2.828-.948,5.89-1.669,9.022a.379.379,0,0,1-.345.3l-2.268.14a.379.379,0,0,0-.244.65l2.085,2.035c-.573,2.158-1.241,4.317-2.013,6.428a55.593,55.593,0,0,1-2.642,6.125.377.377,0,0,1-.251.2l-3.749.921a.379.379,0,0,0-.121.684l1.943,1.3a.386.386,0,0,1,.108.524c-.3.47-.615.932-.934,1.382a25.93,25.93,0,0,1-6.453,6.51l-.608.038a.035.035,0,0,1,0,.029.16.16,0,0,0-.027-.028,6.856,6.856,0,0,1-.541-.581c-1.2-1.413-3.375-4.867-3.91-11.76a.367.367,0,0,1,.064-.246l.161-.231.7-1.012a.384.384,0,0,0-.245-.59l-.486-.091a.376.376,0,0,1-.307-.365,56.931,56.931,0,0,1,.626-9.008.392.392,0,0,1,.22-.293l1.645-.762a.379.379,0,0,0,.042-.667l-1.255-.779a.377.377,0,0,1-.175-.394,33.085,33.085,0,0,1,2.5-7.8,29.861,29.861,0,0,1,1.844-3.36.378.378,0,0,1,.408-.163l1.424.33a.382.382,0,0,0,.417-.561l-.763-1.336a.389.389,0,0,1,.028-.423,30.345,30.345,0,0,1,15.53-10.451.377.377,0,0,1,.475.376Z" transform="translate(-578.136 -1270.265)" fill="#5f6386"/>
        <path id="Path_4247" data-name="Path 4247" d="M411.061,1395.557c-1.99-.347-4.088-.745-5.609-2.075a11.143,11.143,0,0,1-2.185-3.012l-2.077-3.666c-.768-1.355-1.561-2.908-1.111-4.4.225-.744.755-1.464.575-2.219-1.307-.308-2.5.835-3.827,1.039-1.65.253-3.129-.958-4.359-2.087-1.457-1.337-3.051-3.091-2.58-5.012.072-.294.186-.629.014-.878a.918.918,0,0,0-.734-.279l-1.974-.128a1.328,1.328,0,0,1-1.5-1.244l-3.666-13.116a2.868,2.868,0,0,1-.1-1.836c.237-.578,1.071-.929,1.506-.48a114.851,114.851,0,0,0,13.886,5.229,6.119,6.119,0,0,1,2.095.931c1.582,1.265,1.5,3.724,2.658,5.385,1.46,2.091,4.6,2.542,5.9,4.735a7.087,7.087,0,0,1,.627,4.073c-.126,2.066-.334,4.359.942,5.99.635.811,1.562,1.34,2.272,2.086a6.973,6.973,0,0,1,1.7,4.765,20.72,20.72,0,0,1-.814,5.1Z" transform="translate(-381.814 -1339.998)" fill="#5f6386"/>
        <path id="Path_4248" data-name="Path 4248" d="M653.122,1339c-9.674,9.625-12.294,22.119-12.679,31.5a63.451,63.451,0,0,0,.361,9.841l-.424.026c-.156-1.377-.3-3.081-.369-5.028-.054-1.555-.056-3.263.024-5.086.037-.825.089-1.668.165-2.537v0c.777-9.055,3.789-20.215,12.624-29.012Z" transform="translate(-603.984 -1325.141)" fill="#fff"/>
        <path id="Path_4249" data-name="Path 4249" d="M451.532,1435.033l-.446.028c-.065-.172-.125-.339-.19-.506q-1.143-2.981-2.31-5.606c-10.179-23.02-21.155-26.7-21.278-26.741l.125-.4c.149.049,3.8,1.219,8.879,6.658,3.377,3.609,7.867,9.682,12.311,19.529.881,1.955,1.763,4.06,2.63,6.325a.326.326,0,0,1,.024.057Z" transform="translate(-420.966 -1379.45)" fill="#fff"/>
      </g>
      <g id="Group_680" data-name="Group 680" transform="translate(145.264 140.044)">
        <path id="Path_4250" data-name="Path 4250" d="M1314.59,1380.925a9.394,9.394,0,0,1-.466,2.186c-.314,1.053-.625,2.1-.94,3.157v0q-.268.9-.54,1.808-.383,1.3-.77,2.59a1.243,1.243,0,0,1-.385.694.255.255,0,0,1-.05.03c-.481.284-1.348.052-1.448.6-.055.285.2.524.357.764a1.624,1.624,0,0,1,.014,1.61,2.082,2.082,0,0,1-.245.387l-5.343-1.317c-.005-.114-.007-.23,0-.345a7.758,7.758,0,0,1,.505-2.359c.194-.528.416-1.058.618-1.591.08-.215.157-.427.228-.641a5.715,5.715,0,0,0,.328-2.692c-.137-.878-.573-1.79-.233-2.614.235-.57.79-.942,1.13-1.458a2.348,2.348,0,0,0,.328-.8,3.921,3.921,0,0,0-.239-2.171c-.369-.962-.958-1.826-1.327-2.79a6.628,6.628,0,0,1-.207-4.128,2.321,2.321,0,0,1,.768-1.31c.672-.49,1.849-.5,1.984-1.321.092-.544-.406-.984-.7-1.452-.809-1.291-.066-2.96.674-4.292q1.663-2.982,3.323-5.964c.629-1.128,1.532-2.42,2.823-2.339a2.539,2.539,0,0,1,2.008,1.729,19.247,19.247,0,0,1,.621,2.722c.314,1.321.957,2.558,1.162,3.9a3.359,3.359,0,0,1-1.388,3.552c-.164.085-.372.2-.356.382.012.134.138.22.241.307a2.411,2.411,0,0,1,.444,2.242c-.064.42-.139.834-.223,1.249a30.082,30.082,0,0,1-1.986,6.288,7.132,7.132,0,0,0-.67,1.94C1314.569,1379.957,1314.618,1380.444,1314.59,1380.925Z" transform="translate(-1293.61 -1355.161)" fill="#9fa3bf"/>
        <path id="Path_4251" data-name="Path 4251" d="M1319.765,1427.968q-.372,1.435-.777,2.929c-.56,2.062-1.171,4.206-1.834,6.411l-.2.678-.29-.072q.07-.229.141-.459c0-.017.011-.034.015-.048.724-2.406,1.385-4.739,1.987-6.973q.386-1.436.742-2.81c3.177-12.354,4.451-21.13,4.469-21.251l.294.042C1324.289,1406.538,1323,1415.453,1319.765,1427.968Z" transform="translate(-1303.844 -1399.234)" fill="#fff"/>
        <path id="Path_4252" data-name="Path 4252" d="M1363.765,1422.01c-.317.94-1.314,3.775-2.937,7.367a.27.27,0,0,1-.435.082.27.27,0,0,0-.458.2l.06,1.511c-.875,1.829-1.891,3.788-3.044,5.756a.269.269,0,0,1-.3.128l-1.566-.386a.269.269,0,0,0-.3.388l.98,1.82c-.845,1.34-1.756,2.66-2.727,3.926a39.462,39.462,0,0,1-3.088,3.587.268.268,0,0,1-.212.082l-2.734-.171a.269.269,0,0,0-.227.438l1.04,1.293a.274.274,0,0,1-.038.378c-.3.254-.614.5-.926.738a18.4,18.4,0,0,1-5.75,3.041l-.419-.1a.026.026,0,0,1,0,.02.13.13,0,0,0-.012-.024,4.847,4.847,0,0,1-.244-.508c-.512-1.211-1.254-4.012-.154-8.793a.261.261,0,0,1,.1-.153l.158-.123.687-.537a.272.272,0,0,0-.041-.452l-.31-.165a.268.268,0,0,1-.13-.312,40.4,40.4,0,0,1,2.334-5.967.279.279,0,0,1,.211-.152l1.276-.167a.269.269,0,0,0,.17-.443l-.685-.794a.268.268,0,0,1-.035-.3,23.479,23.479,0,0,1,3.347-4.751,21.222,21.222,0,0,1,1.961-1.884.269.269,0,0,1,.311-.024l.895.525a.271.271,0,0,0,.4-.291l-.234-1.066a.276.276,0,0,1,.109-.281,21.535,21.535,0,0,1,12.733-3.784.267.267,0,0,1,.241.356Z" transform="translate(-1323.673 -1412.373)" fill="#5f6386"/>
        <path id="Path_4253" data-name="Path 4253" d="M1236.821,1428.273a5.945,5.945,0,0,1-4.2-5.1l-.629-2.923a4.166,4.166,0,0,1,.181-3.214c.31-.456.821-.831.86-1.381-.819-.485-1.87.036-2.812-.108-1.171-.179-1.916-1.312-2.509-2.338-.7-1.215-1.411-2.74-.685-3.941.111-.184.259-.386.2-.592-.057-.184-.258-.276-.438-.345l-1.31-.505a.942.942,0,0,1-.751-1.161l.3-9.66a2.037,2.037,0,0,1,.323-1.264c.283-.341.922-.4,1.121-.006a81.524,81.524,0,0,0,8.295,6.486,4.335,4.335,0,0,1,1.221,1.075c.8,1.192.225,2.839.658,4.21.545,1.725,2.579,2.7,2.994,4.459a5.028,5.028,0,0,1-.439,2.891c-.524,1.373-1.15,2.881-.632,4.256.258.683.774,1.239,1.1,1.894a4.948,4.948,0,0,1,.14,3.587,14.691,14.691,0,0,1-1.633,3.282Z" transform="translate(-1224.721 -1389.846)" fill="#5f6386"/>
        <path id="Path_4254" data-name="Path 4254" d="M1364.161,1456.829c-8.592,4.467-13.016,12.372-15.266,18.644a45.036,45.036,0,0,0-1.842,6.741l-.293-.072c.186-.966.448-2.151.816-3.483.293-1.064.654-2.222,1.095-3.439.2-.551.414-1.111.65-1.684v0c2.447-5.967,6.853-12.886,14.7-16.97Z" transform="translate(-1329.748 -1442.427)" fill="#fff"/>
        <path id="Path_4255" data-name="Path 4255" d="M1259.592,1462.463l-.307-.076c-.008-.13-.013-.256-.021-.383q-.142-2.261-.376-4.286c-2.011-17.747-8.664-22.569-8.739-22.621l.171-.247c.091.065,2.313,1.631,4.6,6.391a50.494,50.494,0,0,1,4.2,15.836c.182,1.511.333,3.124.44,4.841a.252.252,0,0,1,0,.044Q1259.577,1462.212,1259.592,1462.463Z" transform="translate(-1246.604 -1423.741)" fill="#fff"/>
      </g>
      <rect id="Rectangle_949" data-name="Rectangle 949" width="110.107" height="176.002" rx="55.054" transform="translate(54.3 4.359)" fill="#fff" stroke="#251138" stroke-miterlimit="10" stroke-width="2"/>
      <path id="Path_4256" data-name="Path 4256" d="M725.951,465.081V591.472c0,7.247-5.662,13.18-12.588,13.18H645.308c-6.923,0-12.588-5.931-12.588-13.18V465.081c0-7.249,5.665-13.179,12.588-13.179h17.616a1.845,1.845,0,0,1,1.8,1.886h0a4.759,4.759,0,0,0,4.632,4.85h19.5a4.759,4.759,0,0,0,4.632-4.85h0a1.845,1.845,0,0,1,1.8-1.886h18.075C720.287,451.9,725.951,457.833,725.951,465.081Z" transform="translate(-569.984 -437.777)" fill="#fff" stroke="#251138" stroke-miterlimit="10" stroke-width="2"/>
      <rect id="Rectangle_950" data-name="Rectangle 950" width="78.443" height="78.443" rx="35.892" transform="translate(149.431 15.487)" fill="#ffaa40"/>
      <rect id="Rectangle_951" data-name="Rectangle 951" width="64.855" height="11.941" rx="5.971" transform="translate(156.224 55.831)" fill="#30354f"/>
      <rect id="Rectangle_952" data-name="Rectangle 952" width="64.855" height="11.941" rx="5.971" transform="translate(156.224 72.226)" fill="#30354f"/>
      <g id="Group_682" data-name="Group 682" transform="translate(55.686 0)" clip-path="url(#clip-path)">
        <g id="Group_681" data-name="Group 681" transform="translate(22.87 24.535)">
          <path id="Path_4257" data-name="Path 4257" d="M836.6,1947.12l15.915,3.246a2.241,2.241,0,0,1,1.773,2.208h0a2.229,2.229,0,0,1-2.205,2.252H829.46l.455-7.624Z" transform="translate(-817.853 -1749.089)" fill="#494e6d"/>
          <path id="Path_4258" data-name="Path 4258" d="M2.386,0H4.3A2.386,2.386,0,0,1,6.69,2.386v6.55H0V2.386A2.386,2.386,0,0,1,2.386,0Z" transform="translate(18.993 201.557) rotate(180)" fill="#fb855f"/>
          <path id="Path_4259" data-name="Path 4259" d="M1187.346,1938.413l15.672,4.216a2.213,2.213,0,0,1,1.615,2.31h0a2.255,2.255,0,0,1-2.364,2.107l-22.611-1.4,1-7.568Z" transform="translate(-1119.231 -1741.31)" fill="#494e6d"/>
          <path id="Path_4260" data-name="Path 4260" d="M1183.138,1907.7h0a3.421,3.421,0,0,0,2.462-4.125l-1.274-5.364-6.5,1.61,1.274,5.365a3.342,3.342,0,0,0,4.039,2.514Z" transform="translate(-1117.655 -1706.997)" fill="#fb855f"/>
          <path id="Path_4261" data-name="Path 4261" d="M1186.067,715.817s-24.753,28.727-16.429,34.872c9.387,6.928,22.491-32.579,22.491-32.579S1191.291,715.031,1186.067,715.817Z" transform="translate(-1109.136 -689.326)" fill="#eb8f90"/>
          <path id="Path_4262" data-name="Path 4262" d="M967.174,780.192s7.651,3.569,15.515,7.815c8.719,4.707,17.638,10.361,15.351,15.391-5.036,11.074-36.668-12.851-36.668-12.851C957.018,786.059,961.766,779.244,967.174,780.192Z" transform="translate(-929.911 -744.76)" fill="#eb8f90"/>
          <path id="Path_4263" data-name="Path 4263" d="M1272.9,629.032a8.051,8.051,0,0,1-1.236-3.844c.027-1.909.281-3.2-.8-5.128s1.241-2.831,2.1-1.111,1.829,4.652,3.571,2.879,1.156-8.055,4.714-6.488c0,0,.434-2.881,1.672-2.572s.86,2.922.86,2.922,3.148-1.5,1.006,4.984c0,0,1.633.114,1.382,1.422-.4,2.091-3.107,6.04-6.049,8.453C1275.343,634.469,1272.9,629.032,1272.9,629.032Z" transform="translate(-1197.484 -600.732)" fill="#eb8f90"/>
          <path id="Path_4264" data-name="Path 4264" d="M960.785,769.843a47.208,47.208,0,0,1-7.721,15.865L936.813,773l6.244-10.82Z" transform="translate(-910.241 -729.331)" fill="#80c2c1"/>
          <path id="Path_4265" data-name="Path 4265" d="M1327.767,638.615l-.527-.253c2.593-5.407,2.482-7.155,2.48-7.172l.582-.059C1330.31,631.2,1330.464,632.99,1327.767,638.615Z" transform="translate(-1246.24 -616.556)" fill="#d16b70"/>
          <path id="Path_4266" data-name="Path 4266" d="M1343.651,641.155l-.5-.3a34.612,34.612,0,0,0,2.8-7.489l.568.139A34.517,34.517,0,0,1,1343.651,641.155Z" transform="translate(-1259.93 -618.482)" fill="#d16b70"/>
          <path id="Path_4267" data-name="Path 4267" d="M1355.2,672.808l-.5-.3c1.011-1.68,2.211-3.872,2.223-3.894l.513.28C1357.424,668.915,1356.22,671.117,1355.2,672.808Z" transform="translate(-1269.872 -648.812)" fill="#d16b70"/>
          <path id="Path_4268" data-name="Path 4268" d="M948.176,1177.995h0a9.453,9.453,0,0,0,6.54-11.116c-4.481-20.7-9.716-41.032-14.379-56.214H919.505c5.395,17.271,12.456,42.405,17.25,60.681A9.223,9.223,0,0,0,948.176,1177.995Z" transform="translate(-895.346 -1029.239)" fill="#5f6386"/>
          <path id="Path_4269" data-name="Path 4269" d="M1049.22,1465.745h0a9.2,9.2,0,0,1,11.483,7.067c3.784,17.863,8.938,40.943,11.26,52.426l-15.076,4.307c-2.917-13.005-9.894-36.249-14.088-52.321A9.429,9.429,0,0,1,1049.22,1465.745Z" transform="translate(-1001.184 -1334.518)" fill="#5f6386"/>
          <path id="Path_4270" data-name="Path 4270" d="M812.936,1178.333h0a9.326,9.326,0,0,0,9.231-8.906c1.146-21.167,1.65-42.851,1.164-58.755H803.1c.639,18.116.8,39.2.592,58.115A9.346,9.346,0,0,0,812.936,1178.333Z" transform="translate(-795.168 -1029.245)" fill="#5f6386"/>
          <path id="Path_4271" data-name="Path 4271" d="M812.944,1465.47h0a9.322,9.322,0,0,1,9.194,9.964c-1.068,18.244-2.591,40.781-3.384,52.478H803.1c.621-13.327.433-36.523.634-53.155A9.3,9.3,0,0,1,812.944,1465.47Z" transform="translate(-795.168 -1334.583)" fill="#5f6386"/>
          <path id="Path_4272" data-name="Path 4272" d="M831.514,802.3s-.471-41.93-10.766-47.9c-5.9-3.422-18.117-2.493-24.346,2.235-6.287,4.771-1.847,45.663-1.847,45.663Z" transform="translate(-786.505 -720.877)" fill="#80c2c1"/>
          <path id="Path_4273" data-name="Path 4273" d="M786.912,949.9s-36.881,4.473-34.869,14.837c2.269,11.687,37.769-8.927,37.769-8.927S791.226,952.919,786.912,949.9Z" transform="translate(-751.16 -890.886)" fill="#eb8f90"/>
          <path id="Path_4274" data-name="Path 4274" d="M766,785.1s-1.765,8.4-4.131,17.155c-2.623,9.709-6.109,19.821-11.412,18.624-11.674-2.636,4.391-39.334,4.391-39.334C758.2,776.235,765.739,779.5,766,785.1Z" transform="translate(-746.202 -743.684)" fill="#eb8f90"/>
          <path id="Path_4275" data-name="Path 4275" d="M984.705,894.007a8.319,8.319,0,0,1,1.629-3.741c1.274-1.415,2.3-2.206,2.79-4.4s2.763-1.269,2.258.618-1.729,4.756.7,4.629,6.136-5.25,7.692-1.616c0,0,2.21-1.863,2.906-.777s-1.3,2.788-1.3,2.788,3.276,1.046-2.545,4.437c0,0,1.112,1.214.07,2.022-1.667,1.292-6.23,2.389-9.955,2.168C982.9,899.775,984.705,894.007,984.705,894.007Z" transform="translate(-951.241 -834.679)" fill="#eb8f90"/>
          <path id="Path_4276" data-name="Path 4276" d="M769.958,794.722a36.833,36.833,0,0,1-16.835-4.282l5.6-12.252a8.107,8.107,0,0,1,9.933-4.4L775.293,776Z" transform="translate(-752.158 -738.969)" fill="#80c2c1"/>
          <path id="Path_4277" data-name="Path 4277" d="M1046.172,922.767l-.225-.54c5.437-2.268,6.5-3.656,6.514-3.669l.477.338C1052.9,918.957,1051.834,920.405,1046.172,922.767Z" transform="translate(-1004.161 -863.914)" fill="#d16b70"/>
          <path id="Path_4278" data-name="Path 4278" d="M1055.007,936.734l-.177-.558a33.158,33.158,0,0,0,6.956-3.687l.333.479A33,33,0,0,1,1055.007,936.734Z" transform="translate(-1011.806 -875.903)" fill="#d16b70"/>
          <path id="Path_4279" data-name="Path 4279" d="M1057.192,966.009l-.171-.559c1.839-.563,4.152-1.38,4.175-1.389l.2.551C1061.368,964.62,1059.044,965.442,1057.192,966.009Z" transform="translate(-1013.691 -903.073)" fill="#d16b70"/>
          <path id="Path_4280" data-name="Path 4280" d="M887.66,697.95c4.283,0,6.235-5.109,5.084-6.284a4.155,4.155,0,0,1-.809-1.278h0a8.756,8.756,0,0,1-.582-2.219l0,0-7.917-7.212c.428,4.592-1.5,7.815-2.194,10.111S882.789,697.95,887.66,697.95Z" transform="translate(-862.305 -659.434)" fill="#eb8f90"/>
          <path id="Path_4281" data-name="Path 4281" d="M905.588,710.67a7.5,7.5,0,0,0,7.112,4,8.756,8.756,0,0,1-.582-2.219l0,0C911.9,712.327,903.46,706.514,905.588,710.67Z" transform="translate(-883.073 -683.719)" fill="#d16b70"/>
          <path id="Path_4282" data-name="Path 4282" d="M841.567,616.357s.34,4.191,6.308,8.509c6.256,4.527-.865-9.386-.865-9.386Z" transform="translate(-828.273 -603.086)" fill="#8e3332"/>
          <path id="Path_4283" data-name="Path 4283" d="M889.206,603.713s.845,3.612,1.94,7.665c1.566,5.794,1.7,10.48-4.081,10.48-9.708,0-9.061-16.451-9.061-16.451Z" transform="translate(-859.622 -592.96)" fill="#eb8f90"/>
          <path id="Path_4284" data-name="Path 4284" d="M848.956,540.883s14.557-.333,12.551-10.387-7.717,2.407-10.677,2.407c-3.473,0-12.932.517-9.46,8.958C842.271,544.053,843.71,541.225,848.956,540.883Z" transform="translate(-827.454 -526.577)" fill="#8e3332"/>
          <path id="Path_4285" data-name="Path 4285" d="M1022.011,825.1a53.427,53.427,0,0,0-4.511-15.775l1.047-.52a54.645,54.645,0,0,1,4.626,16.173Z" transform="translate(-979.68 -769.458)" fill="#251138"/>
          <rect id="Rectangle_953" data-name="Rectangle 953" width="0.585" height="5.24" transform="matrix(0.535, -0.845, 0.845, 0.535, 56.908, 45.899)" fill="#d16b70"/>
          <rect id="Rectangle_954" data-name="Rectangle 954" width="4.608" height="0.585" transform="translate(9.8 64.763) rotate(-19.39)" fill="#d16b70"/>
          <rect id="Rectangle_955" data-name="Rectangle 955" width="12.151" height="1.169" transform="matrix(0.259, -0.966, 0.966, 0.259, 15.099, 58.418)" fill="#251138"/>
          <path id="Path_4286" data-name="Path 4286" d="M865.221,770.39c-4.035,0-7.515-2.838-10.145-8.312l1.054-.506c2.8,5.827,6.389,8.346,10.678,7.487,4.6-.921,5.683-7.263,5.693-7.328l1.154.186c-.047.294-1.219,7.207-6.618,8.288A9.223,9.223,0,0,1,865.221,770.39Z" transform="translate(-839.898 -728.812)" fill="#251138"/>
          <path id="Path_4287" data-name="Path 4287" d="M780.279,870.479c-5.426-.308-14.166-4.841-14.536-5.034l.541-1.037c.088.046,8.887,4.61,14.061,4.9Z" transform="translate(-763.019 -817.313)" fill="#251138"/>
          <path id="Path_4288" data-name="Path 4288" d="M1046.61,820.527l-.936-.7c2.5-3.336,5.546-11.925,5.576-12.012l1.1.389C1052.226,808.563,1049.214,817.048,1046.61,820.527Z" transform="translate(-1003.926 -768.608)" fill="#251138"/>
          <path id="Path_4289" data-name="Path 4289" d="M918.108,1193.137l-15.093.608,1.787-13.384s5.759-.2,7.149-.2S918.108,1193.137,918.108,1193.137Z" transform="translate(-881.154 -1089.046)" fill="#5f6386"/>
          <path id="Path_4290" data-name="Path 4290" d="M934.957,1130.115l-.317-1.125,5.259-1.482-2.1-13.277,1.154-.181,2.266,14.3Z" transform="translate(-908.371 -1032.153)" fill="#30354f"/>
          <rect id="Rectangle_956" data-name="Rectangle 956" width="15.624" height="1.169" transform="translate(8.009 96.179) rotate(-69.149)" fill="#30354f"/>
          <rect id="Rectangle_957" data-name="Rectangle 957" width="1.169" height="18.817" transform="matrix(0.862, -0.507, 0.507, 0.862, 39.825, 81.88)" fill="#30354f"/>
          <path id="Path_4291" data-name="Path 4291" d="M1150.5,1846.42l1.259,6.726-15.075,4.306-1.475-5.557Z" transform="translate(-1080.98 -1662.427)" fill="#494e6d"/>
          <path id="Path_4292" data-name="Path 4292" d="M819.408,1868.24l-.658,6.294H803.1l.227-6.294Z" transform="translate(-795.165 -1681.205)" fill="#494e6d"/>
          <ellipse id="Ellipse_127" data-name="Ellipse 127" cx="2.929" cy="2.991" rx="2.929" ry="2.991" transform="translate(16.499 20.135)" fill="#eb8f90"/>
          <path id="Path_4293" data-name="Path 4293" d="M947.405,692.106l-3.078.405s.3,2.788,1.986,2.535S947.405,692.106,947.405,692.106Z" transform="translate(-916.707 -669.03)" fill="#fff"/>
          <ellipse id="Ellipse_128" data-name="Ellipse 128" cx="0.559" cy="0.571" rx="0.559" ry="0.571" transform="translate(25.214 16.345)" fill="#8e3332"/>
          <ellipse id="Ellipse_129" data-name="Ellipse 129" cx="0.559" cy="0.571" rx="0.559" ry="0.571" transform="translate(28.7 15.559)" fill="#8e3332"/>
          <path id="Path_4294" data-name="Path 4294" d="M942.862,648.557a2.419,2.419,0,0,1-1.013-.231l.49-1.062a.883.883,0,0,0,1.126-.146c.074-.15-.162-.357-.429-.5a3.259,3.259,0,0,1-1.713-3.266l1.157.165-.579-.083.579.078a2.1,2.1,0,0,0,1.1,2.07c1.066.56,1.238,1.432.934,2.049A1.816,1.816,0,0,1,942.862,648.557Z" transform="translate(-914.106 -627.076)" fill="#8e3332"/>
          <path id="Path_4295" data-name="Path 4295" d="M914.719,629.637l-1.07-.472a2.505,2.505,0,0,1,2.059-1.518l.062,1.168-.031-.584.038.583A1.34,1.34,0,0,0,914.719,629.637Z" transform="translate(-890.306 -613.558)" fill="#8e3332"/>
          <path id="Path_4296" data-name="Path 4296" d="M944.274,622.459l-.686-.946a3.272,3.272,0,0,1,2.472-.429l-.276,1.136.138-.568-.135.569A2.105,2.105,0,0,0,944.274,622.459Z" transform="translate(-916.071 -607.842)" fill="#8e3332"/>
        </g>
      </g>
      <rect id="Rectangle_959" data-name="Rectangle 959" width="24.35" height="17.603" rx="8.802" transform="translate(140.972 5.903)" fill="#30354f"/>
      <g id="Group_683" data-name="Group 683" transform="translate(174.71 21.891)">
        <path id="Path_4297" data-name="Path 4297" d="M1463.826,521.551a13.9,13.9,0,1,1-4.072-9.869A13.942,13.942,0,0,1,1463.826,521.551Z" transform="translate(-1435.942 -507.611)" fill="#30354f"/>
        <circle id="Ellipse_130" data-name="Ellipse 130" cx="5.389" cy="5.389" r="5.389" transform="translate(8.552 6.034)" fill="#fff"/>
        <path id="Path_4298" data-name="Path 4298" d="M1484.48,634.392a13.946,13.946,0,0,1-19.9,0,10.568,10.568,0,0,1,9.054-6.966,9.7,9.7,0,0,1,1.791,0A10.569,10.569,0,0,1,1484.48,634.392Z" transform="translate(-1460.586 -610.687)" fill="#fff"/>
      </g>
      <rect id="Rectangle_960" data-name="Rectangle 960" width="14.916" height="1.843" rx="0.922" transform="translate(146.635 12.565)" fill="#fff"/>
      <rect id="Rectangle_961" data-name="Rectangle 961" width="1.39" height="5.384" rx="0.695" transform="translate(154.893 13.155)" fill="#fff"/>
      <rect id="Rectangle_962" data-name="Rectangle 962" width="3.907" height="4.79" rx="1.954" transform="translate(144.748 11.314)" fill="#fff"/>
      <rect id="Rectangle_963" data-name="Rectangle 963" width="1.39" height="5.384" rx="0.695" transform="translate(158.379 12.979)" fill="#fff"/>
    </g>
    <g id="Group_686" data-name="Group 686" transform="translate(218.458 383.358)">
      <path id="Path_4299" data-name="Path 4299" d="M474.794,604.909V592.971a2.113,2.113,0,0,1,2.11-2.11h12.26a2.113,2.113,0,0,1,2.111,2.11V604.91h5.167V592.971a7.286,7.286,0,0,0-7.278-7.278H476.9a7.286,7.286,0,0,0-7.278,7.278V604.91Z" transform="translate(-465.393 -585.693)" fill="#30354f"/>
      <g id="Group_685" data-name="Group 685" transform="translate(0 16.609)">
        <rect id="Rectangle_964" data-name="Rectangle 964" width="35.282" height="25.178" rx="12.589" fill="#ffaa40"/>
        <rect id="Rectangle_965" data-name="Rectangle 965" width="3.814" height="14.842" rx="1.907" transform="translate(15.734 3.684)" fill="#30354f"/>
        <circle id="Ellipse_131" data-name="Ellipse 131" cx="3.942" cy="3.942" r="3.942" transform="translate(13.699 3.684)" fill="#30354f"/>
      </g>
    </g>
  </g>
</svg>
