<svg xmlns="http://www.w3.org/2000/svg" width="25" height="25" viewBox="0 0 25 25">
  <g id="placeholder" transform="translate(0.5 0.5)">
    <g id="Group_1217" data-name="Group 1217" transform="translate(18.185 14.252)">
      <path id="Path_4424" data-name="Path 4424" d="M389.739,307.628a1.795,1.795,0,1,1,1.795-1.795A1.8,1.8,0,0,1,389.739,307.628Zm0-2.652a.857.857,0,1,0,.857.857A.859.859,0,0,0,389.739,304.975Z" transform="translate(-387.943 -304.038)" fill="#ffcb00" stroke="#ffcb00" stroke-width="1"/>
    </g>
    <g id="Group_1218" data-name="Group 1218" transform="translate(0 0)">
      <path id="Path_4425" data-name="Path 4425" d="M8.489,8.02V4.714h7.86a2.672,2.672,0,1,1,0,5.343h-3.23a.469.469,0,0,0,0,.938h3.23a3.609,3.609,0,1,0,0-7.218H8.489V.469A.469.469,0,0,0,8.02,0H.469A.469.469,0,0,0,0,.469V8.02a.469.469,0,0,0,.469.469H8.02A.469.469,0,0,0,8.489,8.02ZM3.365.937H5.124V2.713l-.633-.39a.469.469,0,0,0-.492,0l-.634.39V.937ZM7.551,7.551H.938V.937h1.49V3.553a.469.469,0,0,0,.715.4l1.1-.679,1.1.679a.469.469,0,0,0,.715-.4V.937h1.49V7.551Z" transform="translate(0 0)" fill="#ffcb00" stroke="#ffcb00" stroke-width="1"/>
      <path id="Path_4426" data-name="Path 4426" d="M62.482,224.826a6.68,6.68,0,0,0,1.827-4.287,3.912,3.912,0,0,0-7.824,0,6.678,6.678,0,0,0,1.828,4.287,2.7,2.7,0,0,0-1.834,1.233H44.792a1.449,1.449,0,1,1,0-2.9H51.15a2.387,2.387,0,1,0,0-4.774H45.208a1.449,1.449,0,1,1,0-2.9h4.118a.469.469,0,0,0,0-.937H45.208a2.386,2.386,0,1,0,0,4.772H51.15a1.449,1.449,0,1,1,0,2.9H44.792a2.387,2.387,0,1,0,0,4.773H56.479a2.205,2.205,0,0,0,1.225,1.023,7.859,7.859,0,0,0,5.386,0c.855-.361,1.327-.891,1.327-1.492C64.417,225.786,63.693,225.164,62.482,224.826Zm-5.06-4.279s0,0,0,0a2.975,2.975,0,1,1,5.949,0s0,0,0,0c.016,1.543-.782,2.591-1.706,3.8-.1.127-1.036,1.247-1.036,1.247a.372.372,0,0,1-.232.15.388.388,0,0,1-.232-.149s-.938-1.12-1.034-1.245C58.206,223.139,57.407,222.09,57.423,220.546Zm2.975,7.011c-1.995,0-3.083-.68-3.083-1.03,0-.238.524-.667,1.644-.893l.5.576a1.235,1.235,0,0,0,.939.474H60.4a1.234,1.234,0,0,0,.938-.475l.5-.576c1.119.226,1.643.655,1.643.893C63.48,226.877,62.392,227.557,60.4,227.557Z" transform="translate(-40.417 -204.495)" fill="#ffcb00" stroke="#ffcb00" stroke-width="1"/>
      <path id="Path_4427" data-name="Path 4427" d="M224.953,215.019a.469.469,0,0,0,.469.469h0a.469.469,0,1,0-.47-.469Z" transform="translate(-214.408 -204.493)" fill="#ffcb00" stroke="#ffcb00" stroke-width="1"/>
    </g>
  </g>
</svg>
